<?xml version="1.0" encoding="UTF-8"?>
<svg id="Capa_2" data-name="Capa 2" xmlns="http://www.w3.org/2000/svg" viewBox="0 0 2769.72 955.73">
  <defs>
    <style>
      .cls-1 {
        fill: #fff;
      }

      .cls-2 {
        fill: #feff9d;
      }
    </style>
  </defs>
  <g id="Capa_de_vector" data-name="Capa de vector">
    <path d="M1680.17,102.71c27.77,0,50.26,21.77,50.26,50.32s-22.49,51.04-50.26,51.04-51.1-21.77-51.1-51.04,22.55-50.32,51.1-50.32Z"/>
    <path d="M1476.31,647.94c-1.11-1.02-2.23-2.03-3.36-3.04v-.54c1.12,1.2,2.24,2.38,3.36,3.58Z"/>
    <path d="M1539.29,675.29c.31.31.62.62.93.94-.04.15-.08.3-.12.45-.27-.46-.54-.92-.81-1.38Z"/>
    <path d="M1713.96,517.84v149.52c0,20.27-14.27,30.05-34.55,30.05s-33.77-9.78-33.77-30.05v-77.8c.86-.35,1.71-.71,2.56-1.09.04-.02.08-.04.12-.05.01,0,.02-.01.04-.02,0,0,0,0,0,0,0,0,0,0,0,0,0,0,.02,0,.02,0,0,0,0,0,0,0h0s.01,0,.02,0c0,0,.01,0,.02,0h0s.03-.01.04-.02c0,0,0,0,0,0h.02s.07-.04.1-.05l.11-.05s.04-.02.06-.03c2.11-.94,4.19-1.97,6.21-3.11,4.3-2.41,8.41-5.15,12.35-8.11,1.27-.96,2.53-1.94,3.78-2.93.12-.1.24-.19.36-.29,1.56-1.25,3.1-2.53,4.58-3.86,2.77-2.49,5.48-5.07,8.13-7.69,2.87-2.84,5.6-5.79,8.14-8.93,2.45-3.04,4.71-6.24,6.95-9.43,2.32-3.31,4.5-6.71,6.57-10.17,1.05-1.75,2.05-3.53,3.04-5.31.96-1.74,1.92-3.48,2.79-5.27.84-1.71,1.64-3.47,2.28-5.29Z"/>
    <path d="M838.27,482.16s-.08,0-.12,0c.05,0,.09,0,.14,0h-.02Z"/>
    <path d="M841.82,435.31c.1,0,.2,0,.3.02-.1,0-.2,0-.3-.02Z"/>
    <path d="M869.82,464.25h.11s-.07,0-.11,0Z"/>
    <path d="M874.35,427.52c-2.3-.04-4.61-.08-6.91-.12h-.11c-3.8-.06-7.6-.13-11.39-.2-3.86-.07-7.71-.13-11.57-.2-3.68-.07-7.37-.13-11.05-.19,0,0,.01,0,.01,0-2.84-.05-5.69-.1-8.54-.15-2.14-.04-4.29-.07-6.43-.11l-.74-.02h.03c-.16,0-.33-.01-.5-.02-.14-.03-.29-.03-.43-.01-.41-.02-.83-.03-1.24-.04h.04c-1.01-.04-2.02-.07-3.02-.1.01,0,.02,0,.04,0-.5-.02-1-.04-1.49-.05-.08,0-.16,0-.25,0v-31.5c0-49.54-27.05-71.38-86.37-71.38-54.82,0-81.87,21.05-94.64,55.6-5.22,14.28-16.5,19.5-29.27,19.5-6,0-12-.72-17.27-3-14.28-4.5-24.77-15-24.77-28.49,0-3,.78-6.06,1.5-9.06,7.5-23.27,27.05-45.04,44.32-58.54,26.27-20.27,60.04-33.05,120.86-33.05,100.64,0,150.19,39.82,150.19,128.41t0,31.77c-.01.15-.02.29-.04.44v-.03s0,.08,0,.12v-.04c-.01.16-.03.31-.04.47-.3,0-.59-.01-.89-.01Z"/>
    <path d="M536.69,579.53c0-70.59,42.05-115.64,113.36-135.19,41.32-11.27,80.35-15.77,160.67-17.27.04,0,.07.01.1.02h.02c0,.17,0,.34,0,.52v-.03c0,.21,0,.43,0,.64v-.03c0,.37,0,.73-.02,1.1,0,.13,0,.26,0,.39v.04-.03.05-.04.05-.04.05-.04.04-.04.05-.04.04-.03.05-.03.04-.03.05-.04.05-.04.05-.03.03s0,.05,0,.07v.04-.04.06-.03.05-.04.05-.04.05-.04.05-.04.05-.04.05-.03.04s0,.09,0,.13c0,.05.02.1.05.14-.04.64-.07,1.29-.1,1.93,0-.05,0-.11,0-.16-.09,2.09-.11,4.18-.12,6.27v-.11c0,.1,0,.2,0,.3,0-.04,0-.07,0-.11-.05,4.04-.05,8.07-.05,12.1v-.21c-.02,3.57,0,7.14.02,10.71v-.22c0,4.14.03,8.28.1,12.41h0c.02,1.34.04,2.7.08,4.04.01.45.03.91.05,1.36,0,.17,0,.34.01.51-.02.03-.02.06-.02.09,0,.09.02.18.02.28,0,.25-.02.51-.02.77v-.03s0,.06,0,.09v-.04.06-.04.06-.04.05-.04.07h0s0,0,0,0c0,0,0,0,0,0,0,0,0,0,0,0h0s0,.01,0,.02c0,0,0-.02,0-.02,0,.01,0,.03,0,.04,0-.01,0-.02,0-.03,0,.03,0,.05,0,.08v-.04.04-.04.04-.04.06-.03c0,.11-.01.22-.01.33v.1c0,.1.03.19.11.24.05.04.11.05.17.05h-.03c.05,0,.11,0,.16,0h-.02c.24,0,.47.02.7.02,0,0-.01,0-.02,0,.23,0,.45.02.68.02h-.03c.06,0,.12,0,.18,0h.02s.05,0,.07,0c.25.02.5.03.75.04.82.04,1.63.07,2.45.1,1.67.05,3.34.11,5.01.16,5.8.19,11.61.36,17.41.48,0,0-.01,0-.02,0,.04,0,.09,0,.13,0,3.47.08,6.93.15,10.41.2,5.63.07,11.27.12,16.9.18h-.07.08c1.41.02,2.83.03,4.24.03h5.26v117.24c0,26.27,3.78,51.82,8.27,66.04.72,2.28,1.5,5.28,1.5,7.56,0,12-11.27,22.49-30.05,23.99h-6.72c-15.05,0-28.55-4.5-31.55-18-2.28-9-3.78-22.55-4.5-37.54-28.55,32.27-68.38,61.54-142.69,61.54-82.59,0-132.91-46.54-132.91-123.86ZM651.54,505.94c-29.99,15-45.76,38.27-45.76,74.32,0,39.04,30.05,65.31,75.09,65.31,47.26,0,86.31-23.27,110.36-53.26,14.27-18.05,19.55-32.33,19.55-60.88v-50.26c-87.87,2.22-129.19,9.71-159.24,24.77Z"/>
    <path d="M34.43,555.48c-.78-3.78-1.5-6.78-1.5-9.78,0-16.49,12.71-27.77,28.49-31.55,4.5-.72,8.28-1.5,12.78-1.5,14.28,0,28.55,6.78,33.05,22.55,13.5,50.32,38.27,106.64,147.91,106.64,85.65,0,138.91-41.33,138.91-105.86s-33.77-88.65-122.36-106.64l-60.1-12.78c-112.64-23.27-163.68-66.1-163.68-164.46,0-78.81,58.54-155.4,199.73-155.4s181.73,72.03,198.23,126.13c1.5,3.72,2.28,7.5,2.28,11.28,0,15.77-12.78,26.99-27.77,29.99-3.78.78-8.28,1.5-12.78,1.5-13.55,0-27.05-6-33.05-21.77-11.99-42.77-43.54-84.81-126.91-84.81s-126.91,43.54-126.91,93.09c0,54.1,26.27,81.87,110.42,98.37l55.54,11.28c117.14,24.77,180.96,64.6,180.96,173.46,0,96.87-74.31,169.68-208.72,169.68-171.24,0-206.51-88.59-224.5-149.41Z"/>
    <path d="M415.14,204.21c-4.56-1.92-1.56-9.06,3-7.08,2.37,1.21,4.83,2.05,7.36,2.58-1.32.72-2.6,1.49-3.88,2.33-1.2.78-2.34,1.56-3.48,2.4-.31.22-.62.44-.92.68-.7-.28-1.39-.59-2.08-.92Z"/>
    <path d="M418.26,205.11s.08-.02.11-.04c0,.04-.05.04-.05.04h-.06.06c-.12.06-.24.06-.36.12.06-.06.18-.06.3-.12Z"/>
    <path d="M377.1,222.99h0c-.05.02-.11.04-.16.06.05-.02.11-.04.16-.06Z"/>
    <path d="M368.49,223.51c-.01-.27,0-.53.03-.79v-.06c-.42-.9-.84-1.74-1.02-2.58-1.08-.6-1.86-1.8-1.98-3.12v-.24c-.42-4.02,5.22-6.12,7.5-2.46,1.38,2.58,3.12,5.64,4.08,8.7-.42.12-.78.24-1.2.36h.06s-.06.02-.09.03c-.04.03-.1.04-.18.04-.09.02-.18.03-.27.06.06-.06.18-.06.24-.06-.12,0-.18,0-.3.06h-.06.06c-1.32.18-2.58.48-3.96.72.24-.06.48-.12.72-.18-.57.12-1.17.2-1.75.26-.6-.32-1.23-.56-1.88-.73Z"/>
    <path d="M481.5,228.03s0,0,0,0c.1.17.19.34.29.51,0,0,0,0,0,0-.1-.17-.19-.34-.28-.51Z"/>
    <path d="M356.5,246c0,.06-.06.06-.06.12q0-.06.06-.12Z"/>
    <path d="M356.44,246.11c-.04.05-.08.11-.12.16.04-.05.08-.11.12-.16Z"/>
    <path d="M354.34,249.41s.02-.05.04-.07c-.04.09-.04.15-.04.25-.01,0-.02,0-.03,0,.01-.06.03-.12.03-.19Z"/>
    <path d="M354.27,249.74s-.02.09-.05.15c.02-.05.04-.1.05-.15Z"/>
    <path d="M353.44,252.59c0,.05,0,.1,0,.15-.02.11-.04.22-.06.33,0-.14.01-.29.06-.47Z"/>
    <path d="M353.39,258.08c.04.12.05.22.05.33-.03-.12-.04-.22-.05-.33Z"/>
    <path d="M353.44,259.02s.02.07.05.11c0,0,0,.02,0,.03v.28c-.04-.15-.05-.28-.06-.41Z"/>
    <path d="M353.57,260.35c.02.13.05.26.05.39h0c-.02-.13-.03-.27-.05-.39Z"/>
    <path d="M462.86,202.86h-.06s-.03-.01-.05-.02c.01,0,.03,0,.04-.02.04,0,.09.02.13.04h-.06.06-.06Z"/>
    <path d="M464.33,202.98s-.06-.04-.09-.04c.05,0,.1,0,.12.04,0,0-.02,0-.03,0Z"/>
    <path d="M464.48,203.01s.05,0,.08.02l.03.03s-.06-.02-.1-.04Z"/>
    <path d="M464.56,203.02c.06.02.12.04.16.04-.05,0-.1,0-.16-.04Z"/>
    <path d="M469.41,206.91c.07.06.13.12.2.19-.07-.06-.13-.12-.2-.19Z"/>
    <path d="M476.02,217.67c-.03-.08-.06-.15-.09-.21.04.08.08.16.12.26,0-.02-.02-.04-.03-.05Z"/>
    <path d="M463.07,202.88c.05,0,.11,0,.17,0-.06,0-.11,0-.17,0Z"/>
    <path d="M452.63,209.54c-.24.18-.48.36-.71.54.24-.18.48-.36.71-.54Z"/>
    <path d="M434.58,218.79s-.08.04-.12.04c.04-.02.08-.03.12-.04Z"/>
    <path d="M434.28,218.89s-.09.04-.13.06c-.06,0-.17.06-.23.06.12-.06.24-.06.36-.12Z"/>
    <path d="M433.92,219.02c.06,0,.16-.05.23-.06-.08.03-.15.06-.23.06Z"/>
    <path d="M428.85,221s-.01,0-.02.01c-.04.01-.09.03-.13.04.05-.02.1-.04.15-.06Z"/>
    <path d="M425.76,222.07s-.08.04-.12.05c.04-.02.08-.03.12-.05Z"/>
    <path d="M403.14,233.01s-.07.04-.11.04c.04-.01.08-.03.11-.04Z"/>
    <path d="M396.25,235.63c.06,0,.12,0,.18-.06l-.06.06h-.12Z"/>
    <path d="M382.1,239.95c.24-.06.48-.12.66-.18-.09.03-.17.06-.27.09-.11.03-.22.06-.33.09h-.06Z"/>
    <path d="M361.22,243.37c-.12-.06-.24-.06-.42-.06h.18s-.09-.03-.13-.04c.16.04.31.07.49.11h-.06.06-.12Z"/>
    <path d="M364.22,243.37c-.12,0-.18.06-.36.06.12,0,.24-.06.36-.06Z"/>
    <path d="M363.38,243.49c.05-.03.12-.04.18-.05v.03s-.04,0-.06.02h-.12Z"/>
    <path d="M455.27,207.86s-.07.05-.11.07c.04-.03.07-.05.11-.07Z"/>
    <path d="M434.81,218.72c.06,0,.12-.06.12-.06l-.06.06h-.06Z"/>
    <path d="M396.25,235.63s-.08.03-.12.04c.02-.04.06-.04.12-.04Z"/>
    <path d="M356.36,274.62c-.72-4.26-1.62-8.46-2.7-12.6v-1.26c0-.18,0-.36-.06-.54v.12c-.06-.3-.06-.6-.06-.9v-.24c0,.18,0,.42.06.6-.06-.24-.06-.42-.06-.66-.06-.24-.06-.42-.06-.66v-.06c0-.12,0-.24-.06-.36v-.3c0,.12.06.24.06.3-.12-1.56-.18-3.18-.06-4.8,0,.18-.06.3-.06.42,0-.12.06-.3.06-.48v.06-.18c0-.12.06-.24.06-.36.06-.3.12-.6.18-.9.3-1.02.66-2.04,1.02-3,0-.06.06-.18.12-.24,0-.06,0-.12.06-.18l.06-.06h-.06c.06-.06.12-.18.18-.24.12-.18.24-.36.36-.54.18-.24.36-.48.54-.78,0,0,.06,0,.06-.06.06-.06.12-.18.18-.24.18-.24.36-.42.6-.66.3-.24.54-.42.84-.66,0,.06-.06.06-.06.06,0,0,.06,0,.06-.06.12-.12.3-.24.42-.3-.06.06-.18.12-.24.24.84-.6,1.74-1.14,2.7-1.68.24-.06.48-.06.72-.06h.12c.72.12,1.38.18,2.04.12h.18c.06,0,.06-.06.06-.06h.48-.18.06-.36v.06c0-.06.06-.06.18-.06h.12-.06.3-.12.12c.06,0,.18,0,.24-.06h.36c2.16-.12,4.32-.36,6.48-.66,2.64-.36,5.28-1.08,7.8-1.86-.24.06-.42.12-.66.18.84-.24,1.56-.48,2.4-.72.24-.06.54-.12.84-.24-.24.06-.48.12-.72.18.48-.12.84-.24,1.26-.3.12-.06.24-.06.36-.12,4.58-1.25,9.16-2.62,13.62-4.16,0,0,0,.01,0,.02q.06,0,.12-.06h.12l.06-.06c.96-.3,1.98-.6,2.88-.9,1.08-.42,2.1-.9,3.12-1.32q.06-.06.12-.06c.06-.06.18-.12.24-.12.12-.06.3-.12.42-.18h-.06c.12,0,.18-.06.3-.12l-.06.06c1.8-.78,3.6-1.44,5.34-2.16,1.44-.6,2.76-1.32,4.08-2.1,1.14-.6,2.34-1.14,3.48-1.8.84-.48,1.68-1.02,2.46-1.56,1.68-.78,3.36-1.62,4.98-2.4.6-.24,1.26-.48,1.86-.78l-.06.06c.12-.06.24-.12.36-.12-.18.06-.3.12-.42.18.96-.42,1.98-.72,2.94-1.08-.12.06-.18.06-.24.12.24-.06.42-.18.66-.24v-.06h.06q.06,0,.12-.06s.06,0,.12-.06c1.44-.54,2.82-1.14,4.2-1.62.24-.12.54-.18.84-.3.06,0,.06-.06.12-.06.36-.06.72-.18,1.08-.3-.18.06-.3.06-.48.12,1.62-.48,3.12-.96,4.68-1.56,1.38-.6,2.64-1.32,3.96-1.98-.24.12-.54.24-.84.36.42-.18.84-.36,1.26-.6.18-.06.36-.12.6-.24l-.06.06.06-.06c.06,0,.12-.06.18-.06.9-.42,1.74-.9,2.64-1.44-.24.18-.48.3-.78.48,1.26-.72,2.46-1.38,3.6-2.28-.06.06-.18.18-.24.24.66-.54,1.32-1.08,1.98-1.56,1.04-.75,2.15-1.45,3.25-2.15-.09.06-.19.15-.31.23.18-.12.3-.18.42-.3.06,0,.06-.06.12-.06h-.06c1.26-.9,2.4-1.92,3.6-2.94-.06,0-.06.06-.12.06.54-.48,1.02-.9,1.5-1.32q-.06,0-.12.06s.05-.05.06-.06c.52-.12,1.03-.25,1.56-.42.3-.09.61-.19.92-.3.29,0,.53,0,.76.06-.04-.04-.11-.05-.17-.06.33,0,.62.06.95.06,0,0,.06,0,.06.06h.06-.06c.12,0,.18,0,.3.06h-.06.18c.3.18.6.36.9.54-.18-.12-.36-.24-.6-.42h.06c.66.42,1.26.9,1.92,1.32.12.12.24.24.42.36.42.42.84.9,1.32,1.32.42.42.9.84,1.26,1.26-.06-.06-.12-.12-.18-.18.06.12.18.18.24.3l-.48-.48c.06.06.12.12.24.18-.18-.18-.36-.3-.54-.48,0,.06.06.12.12.12.24.24.48.48.72.72.3.3.48.54.78.9.42.54.78,1.08,1.14,1.68.36.78.78,1.56,1.08,2.34.54,1.14,1.2,2.1,1.8,3.12.24.48.48.96.78,1.44.06.18.18.36.3.6.06.06.06.12.12.18-.06-.06-.06-.12-.06-.18.36.66.72,1.2,1.2,1.8q0,.06.06.12c.12.12.24.3.3.42,1.14,2.7,2.46,5.4,3.96,8.04.06.12.12.3.24.48-1.62,2.16-3.72,4.02-5.58,5.64-31.19,23.81-70.65,40.72-110.3,40.72-3.18,0-6.42-.12-9.6-.3Z"/>
    <path d="M23.34,559.3s-.02.02-.03.03c-.05.03-.09.06-.15.09.04-.04.11-.08.18-.12Z"/>
    <path d="M11.28,560.2c.1.08.19.17.29.25-.1-.08-.2-.16-.29-.25Z"/>
    <path d="M15.66,562.12c.13,0,.25.02.35.03,0,0,.02,0,.02,0,0,0,.02,0,.03.01-.13,0-.26-.02-.4-.06Z"/>
    <path d="M16.08,562.18s0,0-.02,0c0,0,0,0,.02,0,0,0,0,0,0,0,.06,0,.12,0,.19,0h0-.18Z"/>
    <path d="M16.56,562.18c.06-.06.18-.06.24-.12,0,0,.06,0,.12-.06-.08.04-.13.05-.2.08,0,0,0,0,.02-.02-.02.01-.04.02-.06.04-.02,0-.04.01-.06.03h.02c-.06.03-.1.06-.14.06h-.12c-.12,0-.24,0-.36-.06.12.06.24.06.36.06h-.12c-.07,0-.15-.01-.23-.02-.02-.02-.03-.04-.07-.04.04,0,.05.02.07.04,0,0,0,0-.02,0-.1-.03-.21-.03-.35-.03-.12,0-.24,0-.36-.06.12.06.24.06.36.06.03.02.07.03.1.04-.57-.05-1.15-.1-1.72-.1,0,0-.06,0-.06-.06h.06-.12c-.28-.07-.55-.12-.82-.16,0,0-.01-.01-.02-.02-.15-.15-.26-.26-.36-.36,0,.02,0,.04,0,.06-.38-.38-.77-.73-1.15-1.07.11.09.22.17.31.23-.24-.24-.54-.54-.84-.78-2.46-3.42-4.14-7.32-5.64-11.1-1.74-4.62-3.06-9.36-4.08-14.16-.96-4.92-1.68-9.96-1.14-14.93.12-1.68.54-3.42,1.38-4.92.3-.48.72-1.08,1.02-1.32l.24-.24.06-.06c.18-.54.54-1.02.96-1.44.12-.06.24-.18.36-.24h.06c3.78-2.82,7.86-5.16,12-7.32,4.92-2.52,10.08-4.8,14.81-6.72,10.38-4.32,21.05-7.8,31.91-10.68,10.68-2.88,21.65-5.28,32.69-6.12,4.8-.36,9.84-.48,14.57.6,2.76.6,5.64,1.8,7.2,4.2.06.06.12.18.12.24.06,0,.06.06.12.06.06.12.06.24.12.36.18.36.24.72.24,1.08.06.12.06.18.06.3,2.58,9.72,4.56,19.55,6.78,29.45.78,3.6,1.08,8.4-2.88,10.2-27.66,5.67-61.75,12.04-86.52,26.99-.37.05-.74.11-1.11.18-1.38.3-2.58.78-3.84,1.32.09-.04.18-.12.29-.18.04-.02.08-.04.13-.05-.04.01-.09.03-.13.05-2.47,1.07-4.89,2.31-7.13,3.66l.06-.06c-.18.12-.36.24-.54.36.03-.03.06-.06.09-.09.04-.03.09-.06.15-.09-.04.02-.08.04-.12.06.02-.02.03-.03.05-.05.06-.04.12-.09.19-.13-.06.03-.12.08-.19.13-.09.07-.18.13-.29.17-.6.25-1.24.5-1.85.75.02-.01.04-.02.05-.03-.02,0-.04.02-.05.03-.12.05-.24.1-.37.15.09-.04.18-.06.29-.11-.26.14-.51.24-.77.35-.11.05-.23.09-.34.14.05-.03.11-.05.16-.08-.05.03-.11.05-.16.08-.62.26-1.26.52-1.82.82-.08.04-.16.08-.24.12.08-.04.16-.08.24-.12-.17.11-.33.17-.5.23,0,0,.02-.02.03-.02.02,0,.04-.01.05-.02-.03,0-.04.01-.05.02-.3.14-.64.26-.94.39-.03,0-.06,0-.08,0l.13-.06s.07-.02.11-.06c-.04.02-.07.04-.11.06-.02,0-.04,0-.07,0-.06.06-.12.06-.24.12Z"/>
    <path d="M16.74,562.12q-.06.06-.12.06s.08-.04.12-.06Z"/>
    <path d="M16.62,562.18h.06s.09-.04.14-.06c0,0,.02,0,.03,0-.05.02-.08.03-.12.07h-.12Z"/>
    <path d="M16.32,562.24c-.06.06-.18.06-.24.06.06,0,.12,0,.24-.06Z"/>
    <path d="M16.13,562.31c-.06.05-.17.05-.23.05.05,0,.13-.04.23-.05Z"/>
    <path d="M1752.1,107.63c1.68,5.82,2.04,11.81,1.74,17.81-.54,9.72-3.42,19.31-7.32,28.13-4.2,9.54-9.84,18.41-16.37,26.45-.12.12-.24.24-.3.36-10.74,12.96-24.35,24.23-40.06,30.23-.12.06-.24.06-.3.12-.06,0-.12.06-.18.06-1.08.42-2.28.78-3.36,1.14-.42.12-.78.18-1.14.18-.48,0-.9-.06-1.32-.24-1.56.42-3.36.6-5.1.24-7.02,0-13.55-1.8-19.67-4.68-.06,0-.12-.06-.18-.12-2.04-.72-4.08-1.56-6-2.46-4.38-2.1-8.7-4.8-12.06-8.4-.3-.36-.6-.72-.72-1.14-2.58-1.92-4.98-4.08-7.32-6.3-.48-.42-.96-.78-1.44-1.2-.66-.42-1.08-.96-1.32-1.56-7.32-7.62-13.32-16.43-17.93-25.85-5.88-12.12-9.6-25.61-9.06-39.16.42-9.18,2.94-18.41,8.58-25.67,2.88-3.72,6.48-6.84,10.62-9.06,5.82-3.12,12.6-4.14,19.13-3.78,6.96.42,13.73,2.52,19.97,5.52,4.62,2.28,8.88,4.98,12.78,7.86.06.12.18.18.3.24,1.5,1.14,3,2.34,4.38,3.6,1.14-.84,2.28-1.68,3.48-2.52,5.64-4.02,11.82-7.38,18.35-9.84,6.06-2.28,12.29-3.72,18.83-3.84,7.44-.12,14.82,1.86,20.87,6.18,6,4.26,10.02,10.79,12.12,17.69Z"/>
    <path d="M476.03,217.67c-.03-.08-.06-.15-.09-.21.04.08.08.16.12.26,0-.02-.02-.04-.03-.05Z"/>
    <path d="M483.2,231.38s0-.06-.06-.12c.06.06.12.18.12.24v.06c0-.06-.06-.12-.06-.18Z"/>
    <path d="M379.81,285.56l-.48-.06c-5.58-.3-11.22-1.14-16.13-2.82-1.62-.56-3.25-1.22-4.72-1.95-.13-.11-.27-.21-.41-.3-.09-.15-.18-.32-.27-.45-.1-.15-.22-.29-.34-.43-.14-.4-.33-.76-.58-1.08-.41-3.22-.98-6.43-1.6-9.59.12.18.24.3.24.36.18.18.36.42.18.18.42.48.9.9,1.38,1.38l.06.06.06.06-.06-.06q.06.06.12.12c.54.48,1.14.9,1.74,1.26.84.6,1.74,1.08,2.52,1.44,1.2.6,2.46,1.14,3.42,1.5.3.06.6.12.72.18,1.86.6,3.84,1.14,5.28,1.44,2.88.48,5.82.9,8.58,1.02.12,0,.24.06.18,0l.18.06c4.08.18,8.16.06,12.24-.24h-.06c5.34-.48,10.68-1.26,16.01-2.4,6.24-1.38,12.42-3.18,18.41-5.28,5.52-2.04,10.92-4.32,16.13-6.96.12-.12.3-.18.36-.24,4.2-2.22,8.28-4.56,12.18-7.2v-.06c.06,0,.12-.06.18-.06h-.06c.12-.06.3-.18.36-.18.12-.12.24-.24.42-.3,2.88-2.1,5.64-4.32,7.92-6.36,1.92-1.74,3.72-3.6,5.1-5.16.12-.18.3-.36.36-.42.06-.12.18-.24.24-.36h.06c1.08-1.26,2.04-2.58,2.7-3.54.84-1.26,1.56-2.58,2.04-3.6.42-.9.78-1.8,1.14-2.7.24-.72.42-1.44.6-2.1v.06c.18-.9.3-1.8.36-2.7,0-.48,0-.9-.06-1.32-.06-.18-.06-.36-.06-.54-.06-.18-.06-.3-.06-.48-.06-.18-.12-.36-.12-.54,0-.06-.06-.18-.06-.24-.06-.24-.12-.48-.18-.72-.06-.06-.06-.12-.06-.12,0-.12-.06-.18-.06-.24s-.06-.12-.06-.18c-.18-.36-.24-.54-.42-.84v-.12c-.06-.06-.06-.12-.12-.18v-.06c0-.06-.06-.06-.06-.12q-.06-.06-.06-.12c-.06-.12-.18-.24-.24-.42-.06-.06-.12-.18-.18-.24-.06-.12-.12-.18-.12-.12,0-.12-.06-.18-.12-.18-.12-.18-.24-.36-.36-.54-.12-.12-.18-.18-.24-.3-.12-.18-.18-.3-.3-.42-1.02-1.62-.54-3.78.9-4.98l.06-.06c.12.18.24.42.36.6.3.48.54.96.78,1.44.12.18.24.36.3.54.06.12.06.18.12.24,0-.06-.06-.12-.06-.18.42.6.78,1.2,1.2,1.8,0,.06.06.06.06.06,0,.06.06.06.06.12v-.06c.06.12.12.24.24.36,1.14,2.76,2.52,5.58,3.96,8.22.36.66.72,1.32,1.14,1.92.06.24.18.48.24.72.06.12.12.3.18.42.06.48.24.84.42,1.26.06.12.06.18.06.3-1.32,5.64-4.62,10.74-8.34,15.12-4.56,5.34-9.9,9.84-15.36,13.68-9.06,6.24-18.95,11.16-29.15,14.99-10.92,4.08-22.25,6.9-33.89,8.34-4.02.48-8.1.72-12.17.72-1.74,0-3.42,0-4.92-.06Z"/>
    <path d="M471.74,227.89c-.06-1.98,1.62-3.96,3.72-3.96s3.9,1.56,3.96,3.72c.06,1.98-1.62,3.96-3.72,3.96s-3.9-1.56-3.96-3.72Z"/>
    <path d="M379.02,279.81h.54c-5.58-.84-18.77-.06-19.55-7.08.18-1.98,2.1-3.72,4.2-3.42,11.4,1.8,22.91,1.5,33.83-1.5,17.69-4.32,35.27-9,50.68-18.71,4.8-2.22,7.02-8.88,12.66-7.8,4.32-3.84,9.66-8.34,10.98-14.04-2.28-3.54,1.92-8.88,5.7-6.12.05.05.1.1.15.15.61,1.4,1.25,2.78,1.92,4.14.26,2.74-.79,5.79-1.96,8.13-10.74,16.37-26.87,28.25-43.9,37.72-4.92,1.62-13.2,11.22-16.67,3.84-11.31,2.19-22.68,4.8-34.26,4.8-1.43,0-2.87-.04-4.31-.12Z"/>
    <path d="M476.61,225.47v.48c0-.18-.06-.42,0-.48Z"/>
    <path d="M462.88,202.89s-.01,0-.02,0c-.01,0-.03,0-.03-.02.04,0,.07.01.11.03h-.06Z"/>
    <path d="M463,202.89h-.06s-.02-.01-.03-.02c.05,0,.1.02.15.02h-.07Z"/>
    <path d="M475.98,217.56s.06.09.08.14c-.03-.05-.06-.09-.08-.14Z"/>
    <path d="M477.33,219.59s-.04-.06-.06-.09c0,0,0,0,0-.01l.12.12s-.04,0-.05-.02Z"/>
    <path d="M483.21,231.43s0-.06,0-.09c.04.06.07.11.07.15v.06c0-.06-.06-.12-.06-.12Z"/>
    <path d="M478.46,233.95c-3.78-1.74-1.38-5.46-1.86-8.52,0-.06-.06-.12,0-.06,0,0,0-.06-.06-.12q0-.06.06.06c-1.02-5.88-4.32-13.38-8.76-18.11-.42.12-.84.12-1.26.06-4.84,1.59-6.33-.97-5.8-3.8.33-.08.66-.17,1-.28.31-.09.63-.2.95-.31,0,0,0,0,.01,0h.36c.12.06.24.06.36.06-.12,0-.24-.06-.36-.06.36,0,.78.06,1.14.06h.06c.12.06.18.06.3.12h.12c.18.12.36.24.54.36-.06-.06-.12-.18-.24-.24.66.42,1.32.84,1.92,1.32.18.12.3.24.42.36.48.42.9.84,1.38,1.32.36.36.72.72,1.08,1.08.12.12.12.18.24.3-.24-.24-.42-.42-.66-.66.24.24.48.48.72.72l-.06-.06c.3.3.6.6.84.9.42.54.78,1.14,1.14,1.74.36.78.72,1.56,1.08,2.34.54,1.14,1.14,2.1,1.8,3.12.12.18.18.24.24.36h-.06.06v.12c.24.36.42.72.6,1.02l-.06-.06c.06.06.06.18.12.24.06.06.12.12.12.18v.06-.06c.12.12.12.24.18.36,0-.06-.06-.12-.06-.18.42.6.78,1.2,1.2,1.8,0,.06.06.06.06.12.06,0,.06.06.06.06v-.06c.06.12.18.3.3.42,1.14,2.7,2.34,5.46,3.78,7.98.06.12.12.18.12.24v-.06c.36.6.72,1.26,1.14,1.86.06.24.12.54.24.78.06.12.12.24.12.3v.06-.06c.06.06.06.12.06.18.06.3.18.6.3.9-.66,1.26-1.74,2.16-3.18,2.16-.54,0-1.14-.12-1.8-.42Z"/>
    <path d="M766.63,311.54c.2-.04.38-.07.57-.11-.47,3.13-.93,6.26-1.38,9.39.26-3.09.54-6.19.81-9.28Z"/>
    <path d="M828.9,340.62c.37-1.97.73-3.93,1.1-5.9.43.58.85,1.17,1.26,1.76-.06.26-.13.52-.2.78-2.1,8.28-4.14,16.55-6.12,24.83,1.32-7.14,2.64-14.34,3.96-21.47Z"/>
    <path d="M833.31,426.81s0,0,0,0c0,0,0,0,0,0,0,0,.01,0,.02,0-2.19-.04-4.38-.08-6.57-.11,2.59-14.6,5.39-29.16,8.45-43.67-.06.36-.12.66-.18.96,2.04-9.59,4.23-19.09,6.54-28.57,4.54,10.62,8.07,22.62,10.79,35.51-2.35,5.84-4.68,11.69-7.07,17.54-2.47,6.12-4.91,12.28-7.31,18.43-1.55-.03-3.11-.05-4.66-.08Z"/>
    <path d="M855.94,427.2c-.25,0-.5,0-.74-.01.31-.78.62-1.57.94-2.35.4-.95.76-1.9,1.14-2.89.02.17.04.34.06.51-.26,1.59-.51,3.17-.77,4.75-.21,0-.42,0-.63-.01Z"/>
    <path d="M838.27,482.16s-.08,0-.12,0c.05,0,.09,0,.14,0h-.01Z"/>
    <path d="M826.08,614.37c-1.14-13.91-2.28-27.77-3.48-41.68-1.2-13.86-2.34-27.77-3.48-41.62-.11-1.23-.23-2.44-.34-3.66,2.05-6.43,4.11-12.87,6.16-19.32,1.08-3.36,2.28-6.72,3.54-10.02,1.99-5.34,3.99-10.67,6-16,1.3.03,2.61.06,3.91.09-.02,0-.04,0-.06,0,.14,0,.27,0,.41.01-.09,0-.17,0-.25,0,3.09.07,6.17.14,9.26.18-4.04,25.49-8.02,50.99-11.89,76.48v-.36c-.05.26-.06.53-.11.79,0,.03-.02.06-.02.11,0-.04.01-.07.02-.11.01-.03.02-.06.03-.09-.02.11-.03.22-.05.33,0-.04,0-.09,0-.13-.06.24-.06.48-.12.72.02-.09.04-.17.06-.26-.71,4.54-1.23,9.09-1.86,13.63-1.38,10.5-2.82,21.05-4.2,31.55-.88,6.51-1.76,13-2.64,19.5-.3-3.38-.62-6.75-.9-10.14Z"/>
    <path d="M829.14,632.18c-.03.11-.04.22-.05.34,0-.12.02-.24.05-.34Z"/>
    <path d="M829.06,632.74s0,.06-.01.09c0,.01-.01.02-.02.03,0-.04.02-.08.03-.12Z"/>
    <path d="M828.96,633.26c.02-.06.03-.11.04-.16-.02.1-.04.2-.04.28v-.12Z"/>
    <path d="M828.96,633.38c0,.06-.05.11-.06.17,0-.06.02-.12.06-.17Z"/>
    <path d="M824.1,590.37c.48-.54.96-1.14,1.38-1.74,1.62-2.71,4.83-2.07,6.34-.2-.25,1.84-.49,3.68-.74,5.52-1.44,1.95-3.02,3.73-4.89,5.35-.42.36-.84.78-1.26,1.14-.3-3.36-.54-6.72-.84-10.08Z"/>
    <path d="M1936.52,521.97v-.6c0,.18,0,.42.06.6h-.06Z"/>
    <path d="M1931.44,711.86l.46.06c0,.06,0,.12,0,.18-.15-.08-.3-.16-.46-.24Z"/>
    <path d="M2135.85,617.01s.06.08.06.12c0-.06-.05-.06-.06-.12Z"/>
    <path d="M2154.22,511.33s.01-.02.02-.03c0,0-.01.02-.02.03.12-.15.24-.3.37-.45-.07.1-.14.19-.21.29-.08.08-.16.17-.23.25.03-.03.05-.06.08-.09Z"/>
    <path d="M1983.92,280.28v-.02s0,.07,0,.11c0-.03,0-.05,0-.09Z"/>
    <path d="M1985.52,296.52s0-.04,0-.06c0,.03.01.07.02.1,0-.01,0-.03,0-.04Z"/>
    <path d="M1990.04,310c0,.21.01.41.02.62,0-.21-.02-.41-.02-.62Z"/>
    <path d="M1990.06,310.7c0,.13.01.27.02.4,0-.13-.01-.27-.02-.4Z"/>
    <path d="M2005.36,336.2c0-1.26-.01-2.52-.01-3.78,0-2.11-.02-4.23-.02-6.35s-.02-4.3-.02-6.45-.02-4.3-.02-6.46c0-2.11,0-4.22-.02-6.34,0-1.05,0-2.11-.01-3.16,0-1.07-.01-2.15-.01-3.23s0-2.14-.01-3.21c0-1.08,0-2.16-.01-3.24v.03-.14.03c0-.09,0-.18,0-.27v.03c0-2.12-.02-4.25-.02-6.38,0-3.47-.02-6.93-.04-10.4h24.16c18.77,0,27.77,12.06,27.77,30.05s-9.77,29.27-27.77,29.27h-23.95Z"/>
    <path d="M2203.42,550.72c.06.13.12.25.18.38.04.15.09.31.13.46-.1-.28-.2-.56-.31-.84Z"/>
    <path d="M2206.05,562.29c.04.07.08.14.11.22,0,.03,0,.06.01.08-.04-.1-.09-.2-.13-.3Z"/>
    <path d="M2136.97,618.45h0s-.02-.04-.04-.06h0s0-.01,0-.02c0-.01,0-.02-.02-.03s-.01-.03-.02-.04c0,0,0,0,0,0h0s0,0,0,0h0s0,0,0-.01h0s0-.02,0-.02h0s0,0,0,0h0s0-.04,0-.05h0s0-.02,0-.02c0,0,0-.01,0-.02v-.02c-.04-.05-.07-.11-.1-.16-.07-.1-.12-.2-.18-.3-.2.16-.39.34-.58.51-.04.04-.1.05-.16.05h-.02c-20.84,22.83-45.41,43.09-72.4,58.34-2.75,2.49-6.24,4.43-9.34,6.2-1.55.58-3.13,1.54-4.75,2.48-.86.58-1.77,1.12-2.73,1.64-21.77,10.5-42.05,16.49-74.38,16.49-61.54,0-106.64-30.77-106.64-109.58v-257.61h-58.54c-18.05,0-26.27-11.99-26.27-29.27s8.22-30.05,26.99-30.05h57.82v-90.87c0-19.49,12.77-29.99,33.83-29.99,19.49,0,33.77,10.5,33.77,29.99v90.87h0c0,.5,0,.99,0,1.48v.23c0,1.36,0,2.71,0,4.07,0,1.59,0,3.19.01,4.79v-.04c0,2.48,0,4.95.02,7.43,0,1.65-.01,3.3-.01,4.96v.15-.04.15c0,.05,0,.1,0,.14v.17-.04.18-.04.21-.03.06c0,1.81,0,3.62-.02,5.44,0,.98,0,1.95,0,2.93,0,.9,0,1.8,0,2.7,0,3.86-.03,7.73-.03,11.59v-.03c0,.21,0,.41,0,.62,0,1.82,0,3.64-.02,5.46,0,1.59-.01,3.18-.01,4.77,0,.73,0,1.46,0,2.19v.04c0,.07.03.14.07.19v251.12c0,36.82,15.77,52.6,43.55,52.6,4.35,0,8.38-.29,12.16-.82.16-.17.33-.32.52-.46,36.47-9.48,66.81-35.5,94.59-59.73,9.94-8.5,19.09-17.78,27.25-27.8-4.55-20.8-6.88-43.35-6.88-67.4,0-129.91,72.81-217.78,194.51-217.78s190.67,87.09,190.67,217.78-72.03,220.78-189.17,220.78c-74.88,0-130.85-31.83-163.38-86.47ZM2213.57,578.62c.12.24.23.48.3.48,3.06,5.1,6.42,10.02,9.96,14.52,3.17,3.96,6.53,7.73,10.13,11.27,3.42,3.36,7.02,6.48,10.44,9.06,3.3,2.52,6.77,4.8,10.31,6.84.06.06.12.12.24.12q.06.06.12.06c3.18,1.8,6.54,3.48,9.84,4.86,3.36,1.38,6.78,2.52,10.2,3.48,3.41.9,6.89,1.62,9.89,1.98.36.06.72.12,1.02.18,3.23.36,6.48.6,9.72.6,3.48-.06,6.89-.3,10.38-.72,3.66-.54,7.2-1.2,10.38-2.1,3.84-1.02,7.49-2.34,11.09-3.84,3.84-1.68,7.62-3.6,10.86-5.52,3.72-2.28,7.26-4.74,10.62-7.32,3.95-3.18,7.67-6.54,10.91-9.84,3.77-3.9,7.31-8.04,10.44-12.18.05-.06.18-.18.18-.18,3.48-4.68,6.72-9.66,9.59-14.7,3.42-6,6.41-12.24,8.88-18.11,2.76-6.78,5.1-13.68,7.08-20.7.06-.23.18-.6.24-.9,2.1-7.91,3.72-16.02,4.8-24.17v-.48c1.08-8.4,1.62-16.86,1.62-25.37s-.59-16.91-1.68-25.31c-1.2-8.46-2.88-16.86-5.09-24.95-2.1-7.32-4.5-14.52-7.32-21.05-2.76-6.41-5.88-12.59-9.35-18.53-.12-.18-.24-.36-.24-.42-.06-.06-.12-.12-.12-.24l-.05-.06c-2.88-4.92-6.18-9.54-9.54-13.8-3.41-4.32-7.08-8.34-10.55-11.82-3.3-3.24-6.84-6.24-10.55-9v.06c-3.36-2.58-6.9-4.8-10.5-6.96-3.12-1.74-6.36-3.3-9.59-4.68-3.3-1.32-6.78-2.52-10.08-3.48-3.54-.9-7.08-1.62-10.67-2.1-3.36-.42-6.72-.6-10.14-.66-3.72.06-7.38.3-10.49.72-3.72.54-7.32,1.32-10.56,2.16-3.48,1.02-7.02,2.16-10.13,3.48-.36.18-.78.36-1.14.48-3.48,1.56-6.9,3.36-10.26,5.28-.18.12-.3.18-.3.18-3.72,2.28-7.38,4.8-10.38,7.2-3.96,3.12-7.68,6.48-10.86,9.72-3.96,4.02-7.55,8.34-10.62,12.41-3.59,4.74-6.84,9.66-9.77,14.88,0,.06-.06.12-.06.18-.05.06-.12.18-.12.18-3.3,5.88-6.24,11.94-8.64,17.7-.88,2.14-1.71,4.28-2.5,6.44-.03.04-.05.08-.08.12-.67,1.09-1.05,2.35-1.46,3.56-.29.88-.58,1.76-.86,2.64-.55,1.69-1.05,3.39-1.63,5.07-.29.83-.59,1.66-.9,2.48-.51,1.11-1.02,2.21-1.54,3.31-1.26,2.67-2.52,5.34-3.8,8-1.27,2.63-2.57,5.25-3.91,7.84-.68,1.31-1.36,2.63-2.07,3.93-.68,1.24-1.38,2.46-2.1,3.68-.74,1.25-1.48,2.5-2.24,3.75-.76,1.25-1.55,2.47-2.35,3.69-1.62,2.5-3.28,4.96-4.95,7.43-1.7,2.5-3.43,4.97-5.18,7.43-1.79,2.5-3.62,4.95-5.49,7.39-1.8,2.36-3.65,4.68-5.52,6.98-1.93,2.37-3.89,4.72-5.82,7.1-.18.21-.36.43-.53.64-.17.21-.34.41-.52.62,0,0,0,0,0-.01-.11.12-.21.25-.31.38,0,.01-.02.02-.02.03h0s-.02.02-.02.03c0,0-.01.01-.02.02,0,0,0,0,0,0,0,0,0,0,0,0h0s0,0,0,0h0s0,0,0,0h0c-.36.42-.7.85-1.05,1.28-1.91,2.3-3.79,4.62-5.73,6.89-1.89,2.21-3.79,4.4-5.71,6.58-3.52,3.99-7.01,7.99-10.53,11.97-1.32,1.49-2.64,2.96-3.98,4.44-2.83,2.63-5.71,5.2-8.58,7.78,0,0-.02.02-.02.02-.02.02-.05.04-.08.05h0s0,.01,0,.01,0,0,0,0h0s-.02.02-.04.03c0,0,0,0-.01,0h0s0,0,0,0c0,0-.01,0-.02,0h-.02s0,.01,0,0c0,0,0,0,0,0,0,0,0,0-.01,0,0,0,0,0,0,0,0,0-.02.02-.03.02-.02,0-.02.01-.03.02,0,0,0,0,0,0-.04.02-.07.05-.11.07h-.02s0,.01,0,.02c0,0,0,0-.02,0-.02.01-.04.02-.06.04,0,0,0,0-.01,0t0,0h0s0,0,0,0h0s-.02.01-.02.02c-.08.05-.15.11-.22.18,0,.01-.02.02-.03.04-.02.03-.05.05-.07.07-.08.06-.15.12-.23.18-.17.13-.34.26-.51.39-.4.3-.81.61-1.21.92h0s0,0,0,.01t0,0s0,0-.02,0c-.02.02-.04.04-.06.05-.03.02-.06.04-.09.07-.02.02-.02.03-.03.05-.11.11-.13.27-.07.41t0,.01s0,0,0,0h0s0,.02.02.04c0,0,0,0,0,.01.58,1.62,1.19,3.22,1.8,4.84,1.37,3.68,2.77,7.34,4.13,11.02.05.13.09.25.14.38,0,.02.02.05.03.08,0,.01,0,.02,0,.03.02.05.04.11.06.16h0s0,.01,0,.01h0s0,0,0,0c.05.16.12.31.17.47.56,1.53,1.14,3.05,1.71,4.57,1.37,3.61,2.7,7.22,4.06,10.82.04.1.08.2.11.3,0-.02,0-.03,0-.04.07.2.15.4.23.6h0s0,.01,0,.02c0,0,0,.01,0,.02h0s.04.11.06.16c.12.33.25.66.37.98.28.94.59,1.88.96,2.79.39.98.79,1.96,1.2,2.94,0,.02.02.03.02.04.16.43.33.86.49,1.28.77,2.61,1.59,5.21,2.47,7.79,1.2,3.6,2.52,7.26,3.96,10.8.12.33.24.66.37.98.06.16.12.32.2.48s.14.31.22.46c-.03-.05-.06-.11-.09-.16.41.95.83,1.88,1.31,2.81,0,0,0,.06.06.06h-.06s.06,0,.06.06c0,.05.05.12.05.18.12.25.28.5.45.73.15-.12.3-.25.45-.38.35-.29.71-.56,1.06-.83,1.17-.9,2.33-1.81,3.47-2.75,1.49-1.21,2.97-2.44,4.45-3.67.8-.67,1.6-1.35,2.38-2.04.76-.67,1.52-1.35,2.27-2.02,1.17-1.05,2.33-2.11,3.46-3.16.12-.12.24-.23.34-.32.06-.05.12-.11.15-.14.09-.08.18-.17.24-.23.31-.3.62-.59.91-.87.16-.15.32-.31.46-.44.16-.16.32-.31.46-.45.35-.34.7-.68,1.05-1.01.39-.38.79-.77,1.18-1.15.77-.76,1.53-1.52,2.29-2.29,1.47-1.5,2.92-3.03,4.37-4.55.73-.77,1.45-1.54,2.18-2.32.34-.36.67-.73,1-1.1.37-.42.74-.83,1.11-1.25.71-.8,1.41-1.59,2.12-2.39.68-.77,1.36-1.53,2.03-2.29,1.41-1.6,2.84-3.19,4.25-4.79,1.45-1.66,2.91-3.31,4.36-4.98,2.62-3.04,5.24-6.08,7.8-9.18.31-.39.63-.76.95-1.14.32-.4.65-.79.98-1.18,0,0,.01-.02.02-.02,0,0,0,0,0,0,0,0,0-.01,0-.01.04-.05.08-.11.12-.15.06-.07.12-.15.17-.21.08-.09.15-.19.23-.29,0,0,0-.01.02-.02,0,0,0,0,0,0,.05-.07.11-.14.17-.21.05-.07.11-.13.16-.2l.02-.02c.59-.73,1.18-1.45,1.75-2.18.33-.43.67-.85,1-1.28.3-.39.59-.78.89-1.17.33-.43.65-.87.97-1.31.31-.42.61-.84.91-1.26.55-.78,1.09-1.55,1.57-2.34l.02-.04s.03-.04.04-.06c0-.01,0-.02.01-.02.05-.09.11-.18.16-.27h0s0,0,0,0c0,0,0-.01,0-.02h0s.04-.06.07-.09c.02-.03.04-.06.06-.09.12.38.24.77.37,1.15.31.95.64,1.89.98,2.83.66,1.82,1.36,3.62,2.1,5.4.34.82.7,1.63,1.05,2.45.35.79.68,1.58,1.04,2.36.2.43.39.86.58,1.29.19.41.39.82.59,1.23.1.2.19.4.29.59,1.96,4.1,4.09,8.12,6.38,12.06Z"/>
    <path d="M1932.7,336.72c-.07-.03-.12-.09-.14-.16,0,0,0-.01,0-.02-.09-.03-.17-.14-.17-.2,0-.03,0-.06,0-.08,0-.13.15-.26.28-.23h0s0,0,0,0c.1-.38-.85-5.7.16-4.26.09,1.61.31,3.26.36,4.85v-.05c.08.3-.38.45-.48.15Z"/>
    <path d="M1341.15,336.07s0-.07,0-.1c.02.07.04.13.06.2-.02-.03-.03-.07-.05-.1Z"/>
    <path d="M1297.77,412.1s0,.06.01.08c0,.04,0,.07,0,.11,0-.06-.01-.13-.02-.19Z"/>
    <path d="M1293.16,695.28s-.02.01-.03.02c.04-.03.08-.05.12-.08,0,0,0,0,0,.01-.08.05-.16.1-.24.15.05-.04.1-.07.15-.11Z"/>
    <path d="M1281.67,698.05s.1-.01.15-.02c-.01,0-.02.01-.03.02-.04,0-.08,0-.12,0Z"/>
    <path d="M1579.76,559.13c-5.21-.32-10.41-.94-15.52-1.95-.09-.01-.19-.03-.29-.04-2.55-.4-5.1-.88-7.62-1.45-1.95-.44-3.89-.93-5.81-1.47-1.15-.32-2.29-.66-3.39-1.01-.11-.03-.2-.06-.28-.09-.04-.01-.08-.02-.09-.02-1.87-.59-3.72-1.24-5.55-1.95-1.64-.64-3.26-1.32-4.84-2.06-.06-.03-.12-.05-.17-.08-.98-.46-1.95-.96-2.91-1.47-.78-.42-1.55-.87-2.28-1.33t0,0c-2.11-1.18-4.13-2.52-6.07-4.05-15.21-12.23-28.61-27.3-37.52-44.75-7.04-13.18-10.59-27.86-13.07-42.5-.7-5.15-.96-10.42-.87-15.7-.17-1.24-.32-2.49-.46-3.74v-8.38c0-63.81-18.05-99.86-72.09-99.86-22.95,0-41.4,7.99-56.36,19.93-.13-.55-.26-1.1-.39-1.65-.12-.49-.23-.98-.36-1.47-.12-.5-.25-1-.38-1.51-.05-.19-.09-.38-.14-.57l-.02-.12c-.03-.13-.07-.27-.11-.4-.02-.05-.03-.11-.05-.16-.02-.09-.05-.18-.07-.27-.13-.5-.27-1.01-.4-1.51-.27-1.04-.56-2.08-.86-3.12-.58-2.03-1.21-4.05-1.88-6.05-.36-1.07-.73-2.13-1.1-3.19-.34-.98-.71-1.95-1.07-2.91-.79-2.09-1.61-4.16-2.46-6.21-.4-.96-.8-1.91-1.22-2.86-.21-.49-.43-.97-.64-1.46-.24-.53-.47-1.07-.71-1.6-.44-.95-.87-1.91-1.31-2.86-.44-.96-.89-1.91-1.34-2.86-.94-1.95-1.91-3.89-2.89-5.82v-.02s-.02,0-.02,0h0s0-.01,0-.02c0,0,0,0,0-.01-.05-.09-.09-.18-.14-.27h0s0,0,0-.01h0c-.09-.17-.17-.34-.26-.5-.62-1.21-1.25-2.41-1.88-3.61-.51-.98-1.04-1.95-1.55-2.91-.25-.46-.5-.91-.76-1.36-.24-.43-.49-.86-.75-1.29s-.52-.86-.79-1.28c0,0,0-.01-.01-.02,1.57-.87,3.17-1.69,4.77-2.49,6.66-3.24,13.62-5.82,20.22-7.74,4.02-1.2,7.98-2.52,12-3.6,3.66-.96,7.32-1.92,10.98-2.88,3-.78,5.94-1.56,8.99-2.16,2.76-.48,5.58-.9,7.92-1.26,4.32-.72,8.63-1.08,13.02-1.38,2.88-.2,5.79-.35,8.69-.37,3.2-.14,6.49-.21,9.87-.21,88.65,0,123.92,53.26,123.92,144.91v19.27c.05.48.11.96.16,1.45.14,1.3.29,2.6.43,3.89.15,1.39.3,2.77.46,4.16.05.41.09.83.14,1.25,2.38,12.3,6.29,24.06,14.01,34.43,2.77,3.66,6.09,7.02,9.79,9.91,0,0,0,0,0,0,.04.02.09.05.13.07,0,0,0,0,.01,0s0,0,.01,0c.55.3,1.11.59,1.67.86.6.29,1.21.55,1.82.8.04.02.07.03.11.05,1.13.45,2.29.82,3.46,1.14,1.23.31,2.46.55,3.71.71.64.08,1.28.14,1.92.18.6.04,1.2.05,1.79.05.63,0,1.25-.02,1.88-.06.66-.04,1.32-.11,1.97-.19h0s.02,0,.03,0c.05,0,.1-.01.15-.02,1.4-.18,2.78-.47,4.14-.83,1.49-.4,2.94-.89,4.34-1.46.04-.02.08-.04.1-.05,1.72-.71,3.39-1.54,5-2.47.01,0,.02,0,.02-.01.03-.02.06-.04.09-.05.99-.58,1.95-1.19,2.9-1.84.83-.56,1.63-1.16,2.42-1.75.03-.03.06-.05.09-.07,1.35-1.06,2.66-2.17,3.92-3.34.32-.29.63-.59.94-.89.17-.16.34-.33.5-.5.09-.09.18-.18.27-.27l.06-.06s.08-.08.09-.09c.04-.04.07-.07.08-.09.57-.59,1.14-1.18,1.7-1.79.56-.61,1.11-1.24,1.65-1.87.97-1.14,1.91-2.32,2.81-3.52.04-.05.07-.1.09-.12.28-.38.56-.76.84-1.14,8.48-14.07,14.29-32.48,18.54-51.78.06-.21.12-.42.17-.63.08-.31.16-.63.23-.95,0,0,0,0,0,0,0,0,0,0,0,0,0,0,0,0,0,0,0-.02.01-.04.02-.07,0,.01,0,.02,0,.04,0-.02,0-.04.01-.07.01-.05.02-.11.04-.17,0,.01,0,.02,0,.03,0-.02,0-.05.01-.07h0s0,0,0,0h0s0,0,0-.01h0s0-.01,0-.01c0,0,0,0,0,0,0,0,0,0,0,0,0,0,0,0,0,0,0-.02,0-.04.01-.05,0,.01,0,.02,0,.04,0-.03.01-.05.02-.08,0-.02,0-.05.02-.07h0s0,0,0,0h0s0-.02,0-.03c0,0,0,0,0,0,0,0,0-.02,0-.03,0,0,0,0,0,0,0,0,0,0,0,0,0,0,0,0,0,.01,0,0,0-.02,0-.02h0s0,0,0,0c0,0,0,0,0,0,0,0,0,0,0,0h0s0-.01,0-.02c0,0,0-.01,0-.02h0s0,0,0,0h0s0-.01,0-.02h0s0,0,0,0c0,0,0-.01,0-.02,0,0,0,.01,0,.02,0-.01,0-.02,0-.03h0s0,0,0-.01c0,0,0,0,0,0,0,0,0,0,0,0,0,0,0,0,0,0h0s0-.03,0-.05h0s0,0,0,0c0,0,0-.01,0-.02,0,0,0,0,0,.01.01-.07.03-.15.05-.22,0,0,0,0,0,0,0,0,0,0,0-.01,0,0,0,0,0,.01,0-.01,0-.02,0-.03,0,0,0,0,0,0,.03-.15.06-.31.09-.46.04-.16.07-.32.11-.48.04-.22.09-.43.13-.65.03-.14.06-.29.07-.44v.04s0-.09,0-.14c4.24-20.59,6.83-41.87,9.04-59.71v-49.97c0-19.49,12.78-29.27,33.77-29.27s34.55,9.78,34.55,29.27t0,39.79c-.09.88-.16,1.75-.24,2.62-.02.17-.04.33-.06.5,0,.01,0,.02,0,.03-.12,6.29-.52,12.56-.82,18.84-.55,9.12-1.02,18.27-2.1,27.35-.23,5.47-.79,10.88-1.47,16.32-.19,2.16-.4,4.32-.62,6.47,0,.07,0,.14,0,.21-.13,1.62-.28,3.24-.47,4.86,0,.13,0,.25,0,.37,0,.07-.02.12-.07.16-2.27,19.39-8.43,38.16-16.23,56.02-5.61,12.17-12.91,23.52-20.63,34.44-3.18,4.4-6.65,8.61-10.39,12.54-4.55,5.21-9.52,10.03-15.17,14.06-12.03,8.72-25.45,15.57-39.85,19.34-7.59,2-15.4,3.64-23.28,3.64-.93,0-1.86-.02-2.78-.07Z"/>
    <path d="M873.83,427.78c-.77,0-1.53-.02-2.3-.03-1.95-.02-3.89-.04-5.84-.06-4-.05-8-.09-12-.14-4.01-.04-8.02-.09-12.02-.13-4.1-.04-8.2-.09-12.29-.14-4-.04-7.99-.09-11.98-.13-1.23-.02-2.46-.03-3.69-.04-.45,0-.89-.01-1.34-.02-.48,0-.96,0-1.44-.02-.14,0-.25-.12-.25-.25,0-.13.12-.25.25-.25,1.02.02,2.03.02,3.05.03,1.65.02,3.3.04,4.95.05,4,.04,7.99.09,11.99.14,4.09.05,8.17.08,12.26.13,2.01.03,4.02.04,6.02.07,2.01.02,4.02.04,6.02.07,3.99.04,7.98.09,11.97.13,1.64.02,3.29.04,4.93.05.64,0,1.28.02,1.92.02.41,0,.81.01,1.22.02-.01.14-.03.28-.04.42h0s0,.05,0,.08c-.46,0-.92-.01-1.39-.02Z"/>
    <path d="M810.75,426.86s0-.04,0-.04v-.02s0-.01,0-.01c0,0,0,0,0,0,0,0,0,0,0,0,0,0,0,0,0,0,0,0,0-.01,0-.02,0,0,0,0,0,0,0-.01,0-.02,0-.04,0,0,0,0,0,0,0,0,0,.01,0,.02h0s0,0,0,0h0s0,0,0,0h0s0,0,0,0c0,0,0,0,0,0v-.04s0-.02,0-.03h0s0-.02,0-.02v-.02s0-.03,0-.02c0,0,0,0,0,0,0,0,0,0,0-.02,0-.02,0-.03,0-.03,0,0,0,0,0,0h0s0,0,0,0c0,0,0,0,0,0,0,0,0,0,0,0,0,0,0,0,0,0,0,0,0-.01,0-.02h0v-.06s0-.04,0-.06c0,0,0,0,0,0,0,0,0,0,0-.01,0,0,0,.01,0,.01,0,0,0,0,0,0,0,0,0,0,0,.01,0-.02,0-.04,0-.04,0-.02,0-.05,0-.04v-.04s0-.01,0-.02c0,0,0,0,0,0,0-.02,0-.05,0-.06,0,0,0-.02,0-.02,0-.01,0-.03,0-.04,0,0,0,0,0,0,0,0,0,0,0,0,0,0,0,0,0,0v-.03s0-.05,0-.05c0-.01,0-.03,0-.03,0-.02,0-.04,0-.04,0-.02,0-.03,0-.03v-.02s0-.04,0-.05c0,0,0,0,0,0,0,0,0,0,0,0h0v-.04s0-.09,0-.13c0-.03,0-.05,0-.07,0-.04,0-.07,0-.07v-.04c0-.13.01-.27.02-.39,0-.02,0-.04,0-.07,0,0,0,0,0,0,0,0,0,0,0,0,0,0,0,0,0,0h0v-.04c0-.14.12-.25.25-.25s.25.11.25.25c0,.02,0,.04,0,.05,0,.02,0,.04,0,.05v-.02h0s0,.05,0,.05c0,.14-.02.28-.02.41v.02s0,.07,0,.07c0,.01,0,.02,0,.04h0s0,0,0,0c0,0,0,0,0,0,0,.02,0,.04,0,.06,0,.04,0,.08,0,.11,0,.02,0,.04,0,.04h0s0,.05,0,.05c0,.02,0,.04,0,.06h0v.04s0,.01,0,.02c0,.02,0,.04,0,.05v-.02h0v.02s0,.04,0,.04c0,.02,0,.03,0,.04v.02s0,.03,0,.03v.02s0,.03,0,.04h0s0,.02,0,.02c0,0,0,0,0,0,0,.02,0,.04,0,.04,0,0,0,.02,0,.02,0,.02,0,.04,0,.05v-.02h0s0,.02,0,.03c0,0,0,0,0,0,0,0,0,.01,0,.02,0,0,0,0,0,.01h0s0,0,0,0v-.02s0,.04,0,.05c0,0,0,0,0,0,0,.02,0,.04,0,.05h0s0,0,0,0h0s0,0,0,0c0,0,0,0,0,0,0,.02,0,.03,0,.03,0,0,0,.01,0,0,0,.02,0,.03,0,.02,0,0,0,0,0,0h0s0,0,0,0c0,0,0,.01,0,.02,0,0,0,0,0,0,0,0,0,.01,0,.02h0s0,0,0,0c0,0,0,0,0,.01h0s0,.03,0,.05h0s0,0,0,0h0s0,0,0,0h0s0,0,0,0h0s0,0,0,0c0,0,0,.01,0,.02,0,0,0,0,0,0,0,0,0,0,0,0,0,0,0,0,0,0,0,0,0,0,0,0,0,0,0,0,0,0,0,0,0,.02,0,.03h0s0,0,0,0h0s0,0,0,0h0s0,0,0,0h0s0,0,0,.01c0,0,0,0,0,0,0,0,0,0,0,0,0,0,0,0,0,0h0c0,.14-.11.26-.25.26-.13,0-.25-.11-.25-.25Z"/>
    <path d="M811.33,426.74h-.02c-.14,0-.26-.09-.26-.23,0-.13.1-.26.23-.26.95,0,1.89,0,2.84,0,1.44,0,2.88,0,4.32,0,1.58,0,3.15,0,4.73,0,1.14,0,2.28,0,3.42,0,.93,0,1.87,0,2.8,0,.7,0,1.4,0,2.1,0,1.15,0,2.3,0,3.45,0h.05s0,0,.01,0c.23,0,.46,0,.69,0,0,0,0,0,0,0h.07c.14,0,.26.09.26.23,0,0,0,.02,0,.02,0,.12-.11.24-.23.24-.26,0-.52,0-.78,0-.01,0-.02,0-.03,0h0c-.42,0-.84,0-1.26,0-.03,0-.06,0-.1,0-.7,0-1.39,0-2.09,0s-1.4,0-2.1,0c-.93,0-1.86,0-2.8,0-.49,0-.98,0-1.46,0-.65,0-1.31,0-1.96,0-.71,0-1.43,0-2.15,0-.85,0-1.7,0-2.55,0-1.45,0-2.89,0-4.34,0-.56,0-1.12,0-1.68,0-.39,0-.78,0-1.17,0Z"/>
    <path d="M834.07,427.02c-3.45-.12-6.91-.18-10.37-.27-.4-.11-1.36.2-1.44-.31.01-.14.13-.23.27-.23,1.53.07,3,.08,4.52.13,2.83.03,5.75.22,8.52.15.51.74-1.15.49-1.54.54h.04Z"/>
    <path d="M1297.24,466.62c.02.41.04.82.05,1.23,0,.12,0,.24,0,.36-.07,4.61-.32,9.21-.43,13.82-.14,5.57-.23,11.16-.48,16.73.03-.61.05-1.21.08-1.81-.12,2.65-.18,5.3-.29,7.95-.16,3.29-.3,6.57-.36,9.85,0,.18,0,.36-.01.53.01-.63.02-1.26.03-1.88-.39,15.68-.72,31.36-.85,47.04-.14,17.15-.11,34.3-.18,51.45v.23c-.04,5.57-.25,11.14-.43,16.7-.27,7.66-.26,15.33-.47,22.99-.23,8.48-.26,16.97-.26,25.46-.03,1.92-.07,3.84-.11,5.75,0,.07-.01.14-.02.21-.02.31-.05.62-.07.94-.02.35-.05.69-.09,1.04,0,0,0,0,0,.01v.02s0,.02,0,.02c0,.01,0,.02,0,.03h0v.02c-.07.48-.17.94-.29,1.41-.12.44-.26.87-.43,1.29,0,0,0,0,0,.01,0,.01,0,.03-.02.04-.18.43-.37.85-.59,1.26,0,0,0,.01,0,.02,0,0,0,.01-.01.02-.22.41-.46.8-.72,1.19-.02.03-.04.05-.05.08v-.02c-.26.39-.55.77-.86,1.13,0,0,.01,0,.02-.02-.02.02-.04.04-.06.06h0c-.28.32-.57.63-.88.92-.02.02-.04.04-.06.05-.24.22-.49.44-.75.64h0c-.32.25-.67.48-1.02.71h0s-.04.02-.06.04c-.5.3-1.02.57-1.55.82h0c-.55.25-1.12.49-1.7.7-.02,0-.04.01-.05.02-.61.22-1.23.41-1.86.59,0,0,.01,0,.02,0-.42.11-.84.22-1.27.32s-.86.18-1.29.26c-.96.16-1.93.3-2.9.38h0s-.02,0-.04,0c-.06,0-.12.01-.18.02,0,0,0,0,0,0-1.39.11-2.78.17-4.17.27,0,0,0,0,0,0-.03,0-.05,0-.08,0h0c-.2,0-.39.02-.58.04-.35-.02-.7-.04-1.05-.05-.4.03-.8.05-1.2.06-.01-.02-.02-.04-.04-.05-.07-.06-.16-.07-.25-.05-.05,0-.08.04-.11.07-.02.02-.03.04-.04.05-1.19.05-2.38.07-3.57.07-2.5,0-5.01-.11-7.52-.3-.73-.1-1.46-.22-2.21-.35-16.92-1.96-26.97-11.69-26.97-29.67v-240.27c0-63.81-18.77-99.86-72.09-99.86-39.83,0-63.82,23.27-81.88,50.32-13.5,20.27-20.27,47.32-20.27,72.09v217.72c0,19.43-12.39,29.21-30.57,30-.5.2-1.05.3-1.62.3h-1.32c-9.36,0-18.59-.12-27.95-.12h-.12c-.6.06-1.2.06-1.8,0h-.12c-.36,0-.66-.05-.96-.12-2.4-.48-4.55-2.16-6.41-3.72-5.88-4.32-9.48-10.91-9.66-17.88-.12-.24-.18-.54-.18-.84v-1.08c0-.36.06-.66.06-.66v-4.56c0-.72.06-1.38.06-2.1-.12-1.14,0-2.4,0-3v-.84c.06-1.02.06-2.04.06-2.58v-3c.06-1.32.06-2.64.06-3.42,0-1.8.06-3.66.06-4.92v-2.7c0-1.2.06-2.46.06-3.18v-1.74c0-.78.05-1.56.05-1.86v-5.04c.06-.72.06-1.5.06-1.74v-3.42c.06-1.02.06-2.1.06-2.58v-1.5c0-1.02,0-1.98.05-2.46v-3.18c0-1.5.06-3,.06-4.02,0-1.62,0-3.23.06-4.38v-2.46c0-1.38,0-2.76.06-3.6,0-1.91,0-3.77.06-5.21v-2.4c0-2.58.06-5.16.06-7.2,0-1.02.06-2.04.06-2.58,0-1.74,0-3.48.06-4.68v-2.22c0-1.5,0-3,.06-4.02v-3.6c0-.72.06-1.38.06-1.56v-3.48c0-1.5.06-2.94.06-3.9v-2.88c.06-2.58.06-5.1.12-7.2v-4.14c.06-1.26.06-2.52.06-3.24v-2.46c.06-2.82.06-5.63.12-7.98v-2.52c0-.96.06-1.86.06-2.28v-3.66c0-.96.06-1.92.06-2.4v-2.52c0-.96.06-1.92.06-2.4v-4.32c0-.78.06-1.5.06-1.8v-2.28c0-1.62.06-3.23.06-4.38v-2.1c0-1.02.06-2.04.06-2.58v-4.02c.06-.66.06-1.38.06-1.56v-2.1c0-1.62.06-3.24.06-4.44v-3.54c.06-1.02.06-1.98.06-2.52v-1.92c0-1.32.06-2.64.06-3.41v-2.1c0-1.26.06-2.58.06-3.36v-2.64c0-.84.06-1.68.06-2.04v-4.08c0-.78.05-1.56.05-1.92v-3.12c0-.72,0-1.5.06-1.74v-1.56c0-2.4.06-4.74.06-6.6v-2.76c.05-2.46.05-4.98.12-6.89v-3.42c.06-1.98.06-3.9.06-5.34,0-.9.06-1.74.06-2.16v-3.41c0-.96.06-1.92.06-2.4v-3.48c0-.96.06-1.92.06-2.4v-3.42c0-.78.06-1.5.06-1.74,0-1.86,0-3.72.06-5.04,0-2.4,0-4.74.06-6.6v-4.2c.06-.9.06-1.8.06-2.22v-2.34c0-1.62.06-3.24.06-4.38s0-2.28.06-2.94v-4.98c0-.6.06-1.2.06-1.32v-2.58c0-1.02,0-2.1.06-2.64v-3.6c0-.9,0-1.86.06-2.28v-4.68c.06-1.26.06-2.52.06-3.3,0-.7,0-1.38,0-1.98-4.02,3.79-8.27,7.31-12.93,10.3-5.11,3.01-14.04,8.03-19.97,6.38-3.58-1.35-2.84-5.8-2.98-8.86-.05-2.81-.14-5.62-.3-8.43-.15-10.23-4.14-26.11,1.32-34.9,2.29-3.7,6.2-6.3,9.44-8.95,1.31-1.06,2.61-2.14,3.88-3.23,3.7-3.68,7.24-7.5,10.84-11.26,4.57-4.59,8.68-9.58,12.71-14.65,3.1-4.45,7.62-7.68,12.62-9.7,12.16-5.35,25.73-5.13,38.8-3.38,1.56.3,4.2,1.26,6.05,2.28,1.38.66,2.64,1.38,3.72,2.4l.06.06c.12.12.18.18.24.24.3.26.59.53.86.8,8.05,4.67,12.98,12.9,12.98,24.68v15.77c0,3.26-.33,7.09-.86,11.18,19.71-39.87,64.91-59.61,107.96-61.07,3.73-.24,7.57-.36,11.54-.36,57.32,0,92.04,22.55,106.63,62.34,0,0,0,0,0,0,0,.03.02.06.03.09h0c.02.07.05.13.09.19.04.09.09.16.13.25.17.32.32.65.46.98.19.45.35.9.53,1.34,0,.02.02.04.03.06,0,0,0,.01,0,.02,0,0,0,0,0,0,.04.09.08.18.12.28l.12.28c.02.05.04.1.06.15,0,0,0,0,0-.01.02.04.04.08.05.12.02.06.05.13.07.19t0,0s0,.01,0,.02c.14.38.27.77.42,1.15,0,.02.01.04.02.06h0s.01.04.02.05h0s0,0,0,0c0,0,0,.01,0,.02,0,0,0,.01,0,.02,0,.02.01.04.02.06t0,0s0,0,0,.01c.07.18.14.37.21.55.02.05.03.09.05.14l.25.67c.07.2.16.4.23.61.07.18.14.36.21.55.06.17.12.34.18.52v-.02s.02.06.02.09h0s0,.01,0,.02c0,.02.01.04.02.05,0,0,0,0,0,0h0c.09.3.18.6.27.89,1.13,4.18,2.24,8.36,3.41,12.54.67,2.4,1.34,4.8,2,7.2.07.31.14.63.2.94,0-.01,0-.03-.01-.04.13.63.27,1.26.39,1.89.57,2.84,1.12,5.67,1.67,8.51.58,3.01,1.14,6.02,1.7,9.03,0-.02,0-.03,0-.04.12.67.24,1.34.36,2,.17,1.62.34,3.24.5,4.86.27,2.62.55,5.23.8,7.85,0,.01,0,.02,0,.03h0c.01.11.02.2.03.3,0,.01,0,.02,0,.03h0c.2,2.14.41,4.28.57,6.42.08,1.05.16,2.11.25,3.16.08,1.03.14,2.05.22,3.08h0c0,.18.02.36.04.54,0,0,0,0,0,0,.02.21.03.41.04.62t0,0c0,.1.02.2.02.3v-.04c0,.12.02.24.02.36,0,0,0,0,0,0,.21,3.57.41,7.13.58,10.7.14,2.89.23,5.78.31,8.68.08,2.85.14,5.7.16,8.55v.52c0,2.22,0,4.45,0,6.67-.01,2.14,0,4.27.02,6.41.01,1.36.02,2.71.04,4.07,0,.68.02,1.35.03,2.02,0,.68.03,1.37.04,2.05,0,.66.03,1.32.04,1.98.02.73.04,1.47.05,2.2.04,1.44.08,2.88.14,4.32Z"/>
    <path d="M446.79,488.31c-.03-.79.62-1.56,1.44-1.56s1.52.6,1.56,1.44c.03.79-.62,1.56-1.44,1.56s-1.52-.6-1.56-1.44Z"/>
    <path d="M226.88,251.84c-6.14-5.85-9.85-14.03-10.16-22.5-.32-8.75,2.96-17.46,9-23.8,5.69-5.97,14.15-10.16,22.5-10.16,8.88,0,17.29,2.79,23.8,9,6.14,5.85,9.85,14.03,10.16,22.5.32,8.75-2.96,17.46-9,23.8-5.69,5.97-14.15,10.16-22.5,10.16-8.88,0-17.29-2.79-23.8-9Z"/>
    <path class="cls-1" d="M810.79,481.17v50.26c0,28.55-5.28,42.82-19.55,60.88-24.05,29.99-63.1,53.26-110.36,53.26s-75.09-26.27-75.09-65.31c0-36.05,15.77-59.32,45.76-74.32,30.05-15.05,71.38-22.55,159.24-24.77Z"/>
  </g>
  <g id="Capa_de_vector-2" data-name="Capa de vector">
    <path class="cls-1" d="M2441.49,742.36c.07,7.43-.26,14.85-1.02,22.25-.88,7.17-2.2,14.28-3.89,21.31-1.87,7.11-4.17,14.1-6.82,20.96-2.68,6.48-5.71,12.77-9.05,18.93-3.56,6.19-7.41,12.18-11.61,17.95-4.15,5.45-8.57,10.65-13.25,15.64-4.88,4.94-9.98,9.61-15.31,14.05-5.53,4.33-11.23,8.38-17.17,12.13-6.03,3.59-12.21,6.87-18.57,9.82-6.78,2.93-13.67,5.49-20.72,7.68-7.02,1.98-14.11,3.55-21.29,4.78-7.05.99-14.12,1.62-21.24,1.89-7.3.07-14.55-.25-21.82-.93-7.36-.92-14.63-2.2-21.85-3.9-7.14-1.88-14.14-4.15-21.04-6.8-6.63-2.75-13.09-5.84-19.4-9.27-6.18-3.56-12.14-7.44-17.9-11.64-5.47-4.19-10.7-8.63-15.71-13.35-4.98-4.93-9.69-10.09-14.14-15.51-4.21-5.39-8.14-10.98-11.78-16.77-3.67-6.16-6.99-12.5-10-19-2.74-6.38-5.16-12.85-7.23-19.46-2.04-7.16-3.7-14.4-4.96-21.74-1.05-7.25-1.7-14.53-1.96-21.86-.07-7.42.27-14.82,1.02-22.2.89-7.06,2.1-14.07,3.79-20.98,1.86-7.09,4.09-14.05,6.72-20.89,2.72-6.61,5.79-13.05,9.19-19.34,3.57-6.23,7.46-12.25,11.68-18.06,4.19-5.51,8.64-10.81,13.39-15.84,4.84-4.91,9.9-9.59,15.23-13.96,4.1-3.22,8.33-6.23,12.64-9.14,2.54,1.81,5.14,3.55,7.77,5.21,7.59,4.68,15.36,8.86,23.6,12.35,7.92,3.36,16.12,6.01,24.45,8.14,12.62,3.22,25.72,4.73,38.77,4.73,3.84,0,7.68-.13,11.5-.39,9.55-.64,18.89-2.23,28.2-4.44,8.29-1.96,16.34-4.81,24.22-8.02,7.72-3.15,15.15-7.14,22.27-11.47,2.22-1.35,4.41-2.77,6.55-4.25,1.34,2.81,3.28,5.36,5.81,7.41,3.68,2.99,7.25,6.13,10.69,9.39,4.98,4.89,9.69,10.06,14.12,15.46,4.3,5.47,8.29,11.18,11.99,17.07,3.61,6.05,6.9,12.27,9.84,18.67,2.88,6.65,5.4,13.45,7.55,20.38,1.97,6.91,3.52,13.9,4.73,20.98,1.07,7.32,1.74,14.66,1.99,22.05Z"/>
    <path class="cls-1" d="M2466.78,206.22c.08,7.42-.27,14.82-1.02,22.21-.89,7.06-2.1,14.07-3.79,20.98-1.86,7.09-4.09,14.05-6.72,20.89-2.72,6.61-5.79,13.05-9.19,19.34-3.57,6.23-7.46,12.24-11.68,18.06-4.19,5.51-8.64,10.81-13.39,15.84-.51.52-1.02,1.04-1.54,1.55-2.66,2.38-5.27,4.84-7.8,7.37-.01,0-.02.02-.04.03-1.91,1.71-3.86,3.38-5.85,5.01-4.86,3.82-9.9,7.33-15.05,10.76-1.15.77-2.21,1.64-3.16,2.59-4.04-3.44-8.25-6.68-12.67-9.64-14.58-9.8-30.42-17.5-47.34-22.31-8.09-2.3-16.39-4.12-24.75-5.1-8.47-1-17.06-1.55-25.59-1.21-17.14.68-34.05,3.76-50.18,9.62-9.9,3.59-19.43,8.07-28.46,13.43.36.04.69.25.86.62.1.22.11.47.05.7,0,.03-.01.05-.02.08.61.8,1.11,1.68,1.63,2.54,1.03,1.51,2.26,2.94,3.27,4.45.86,1.32,1.73,2.61,2.66,3.86.27.36.54.72.82,1.08.64.9,1.28,1.79,1.93,2.69.4.56.8,1.12,1.21,1.69,1.19,1.65,2.38,3.3,3.56,4.95.42.57.83,1.15,1.25,1.72,1.89,2.62,3.8,5.25,5.7,7.87,1.39,1.76,2.55,3.61,3.68,5.47.85-.49,1.71-.97,2.57-1.45,4.49-2.26,9.06-4.29,13.74-6.11,5.09-1.78,10.23-3.29,15.48-4.56,5.14-1.04,10.31-1.84,15.54-2.37,5.33-.36,10.64-.41,15.98-.24,4.9.36,9.75.92,14.59,1.68,4.99.99,9.91,2.19,14.78,3.63,4.55,1.53,9.01,3.23,13.41,5.15,4.7,2.24,9.25,4.71,13.7,7.41,4.14,2.7,8.12,5.58,12,8.65,3.87,3.27,7.6,6.69,11.09,10.36,3.57,3.94,6.93,8.03,10.08,12.3,3.03,4.4,5.82,8.93,8.38,13.62,2.33,4.59,4.42,9.29,6.26,14.1,1.76,5.05,3.23,10.18,4.45,15.38.97,4.88,1.71,9.78,2.24,14.73.36,5.23.46,10.45.34,15.71-.33,5.19-.9,10.32-1.73,15.46-.98,4.97-2.2,9.87-3.64,14.72-1.63,4.8-3.45,9.48-5.5,14.12-2.15,4.4-4.47,8.69-7,12.88-2.75,4.22-5.69,8.29-8.82,12.23-3.37,3.94-6.9,7.7-10.63,11.3-3.74,3.36-7.61,6.52-11.64,9.53-4.42,3.04-8.94,5.87-13.64,8.45-4.53,2.29-9.14,4.34-13.87,6.19-5.09,1.77-10.23,3.27-15.47,4.55-5.36,1.07-10.72,1.89-16.16,2.44-4.91.3-9.8.39-14.71.26-5.07-.32-10.09-.88-15.1-1.68-5.12-1.02-10.16-2.26-15.17-3.74-4.79-1.63-9.47-3.47-14.11-5.52-4.2-2.06-8.28-4.29-12.32-6.66-.18-.11-.36-.22-.53-.34-3.97-2.48-8.09-5.53-12.09-8.72-3.86-3.3-7.54-6.74-11.08-10.38-3.61-3.98-6.98-8.12-10.16-12.43-3.05-4.49-5.85-9.1-8.45-13.86-2.27-4.59-4.32-9.25-6.16-14.02-1.7-4.99-3.14-10.03-4.36-15.15-.95-4.87-1.68-9.74-2.22-14.67-.37-5.41-.48-10.81-.32-16.24.33-4.91.9-9.76,1.67-14.62.98-4.96,2.19-9.84,3.61-14.7,1.62-4.83,3.44-9.56,5.5-14.22,2.09-4.32,4.36-8.52,6.82-12.64.42-.64.84-1.29,1.27-1.92-3.47-3.18-6.66-6.65-10.05-9.91-.58-.61-1.16-1.21-1.75-1.82-.49-.51-.98-1.02-1.47-1.52-2.45-2.54-4.92-5.06-7.45-7.53-.45-.44-.9-.88-1.35-1.31-2.93-3.12-5.94-6.16-9.23-8.9-.3-.25-.61-.51-.92-.75-.41-.32-.49-.75-.36-1.12.04-.11.09-.21.15-.31-.09-.18-.13-.38-.12-.59,0-.09.03-.18.06-.27.66-1.98,1.64-3.86,2.73-5.64,1.53-2.51,3.3-4.86,5.09-7.01.4-.48.81-.96,1.23-1.43,2.36-2.71,4.9-5.29,7.53-7.75,3.06-2.86,6.28-5.55,9.61-8.09,1.72-1.31,3.47-2.58,5.26-3.8,1.72-1.17,3.47-2.3,5.25-3.37,3.05-1.84,6.21-3.55,9.49-4.94.16-.07.32-.14.48-.21-2.97-2.49-5.87-5.07-8.69-7.73-4.98-4.89-9.69-10.06-14.12-15.46-4.3-5.47-8.29-11.18-11.99-17.07-3.61-6.05-6.9-12.27-9.84-18.67-2.88-6.66-5.4-13.45-7.55-20.38-1.96-6.9-3.52-13.9-4.73-20.98-1.07-7.32-1.74-14.66-1.99-22.05-.07-7.43.27-14.85,1.02-22.25.88-7.17,2.2-14.28,3.89-21.3,1.87-7.11,4.17-14.1,6.82-20.96,2.67-6.48,5.71-12.77,9.05-18.93,3.56-6.19,7.41-12.18,11.61-17.95,4.15-5.45,8.57-10.65,13.25-15.64,4.88-4.94,9.98-9.61,15.31-14.05,5.53-4.32,11.23-8.38,17.17-12.13,6.03-3.59,12.21-6.86,18.57-9.82,6.78-2.93,13.67-5.49,20.72-7.67,7.02-1.98,14.11-3.56,21.29-4.78,7.05-1,14.11-1.62,21.23-1.89,7.3-.07,14.55.24,21.82.93,7.36.92,14.63,2.2,21.85,3.9,7.14,1.88,14.14,4.15,21.04,6.8,6.63,2.75,13.09,5.84,19.4,9.27,6.18,3.56,12.14,7.44,17.91,11.64,5.46,4.19,10.7,8.63,15.71,13.35,4.98,4.93,9.69,10.09,14.14,15.51,4.21,5.39,8.14,10.98,11.79,16.77,3.66,6.16,6.99,12.5,10,19.01,2.74,6.37,5.16,12.84,7.23,19.46,2.04,7.16,3.7,14.4,4.96,21.74,1.05,7.25,1.7,14.54,1.95,21.86Z"/>
    <path class="cls-1" d="M2723.74,477.1c.07,7.3-.25,14.55-.93,21.82-.92,7.36-2.2,14.63-3.9,21.86-1.88,7.13-4.15,14.14-6.8,21.03-2.75,6.64-5.84,13.09-9.27,19.4-3.56,6.18-7.44,12.14-11.64,17.91-4.19,5.46-8.63,10.7-13.35,15.71-4.93,4.98-10.09,9.69-15.51,14.14-5.39,4.21-10.98,8.14-16.77,11.79-6.16,3.67-12.5,6.99-19,10-6.38,2.73-12.85,5.16-19.46,7.23-7.16,2.04-14.4,3.7-21.74,4.96-7.25,1.05-14.53,1.7-21.86,1.96-7.42.07-14.82-.27-22.2-1.02-7.06-.89-14.07-2.1-20.98-3.78-7.09-1.86-14.05-4.09-20.89-6.72-6.61-2.72-13.05-5.79-19.34-9.19-6.23-3.58-12.25-7.46-18.06-11.68-5.51-4.19-10.81-8.64-15.84-13.39-4.91-4.83-9.59-9.9-13.96-15.23-3.82-4.86-7.33-9.9-10.76-15.04-.74-1.11-1.57-2.12-2.47-3.04,1.25-1.93,2.46-3.88,3.67-5.83,4.43-7.14,8.02-14.81,11.25-22.55,1.77-4.25,3.23-8.61,4.59-13,1.11-3.57,2.16-7.16,3-10.81,3.77-16.58,5.22-33.57,3.81-50.54-1.46-17.52-5.6-34.54-12.35-50.79-3.83-9.2-8.62-18.09-14.16-26.45,5.18-.86,10.07-3.44,13.56-7.73,2.99-3.68,6.13-7.25,9.39-10.7.65-.66,1.31-1.32,1.97-1.98,2.2-1.99,4.35-4.02,6.47-6.1,2.29-2.07,4.63-4.08,7.02-6.04,5.47-4.3,11.18-8.29,17.07-11.99,6.05-3.62,12.27-6.9,18.67-9.85,6.66-2.88,13.45-5.4,20.38-7.55,6.91-1.97,13.9-3.52,20.98-4.73,7.32-1.06,14.66-1.73,22.05-1.98,7.43-.07,14.85.26,22.25,1.01,7.17.89,14.28,2.2,21.31,3.89,7.11,1.87,14.1,4.17,20.96,6.82,6.48,2.68,12.77,5.71,18.93,9.05,6.19,3.57,12.18,7.41,17.95,11.61,5.45,4.15,10.65,8.57,15.64,13.25,4.94,4.88,9.61,9.97,14.05,15.31,4.33,5.53,8.38,11.23,12.13,17.17,3.59,6.02,6.87,12.2,9.82,18.57,2.93,6.77,5.49,13.67,7.68,20.72,1.98,7.02,3.55,14.1,4.78,21.29.99,7.05,1.62,14.12,1.89,21.23Z"/>
    <path class="cls-1" d="M2214.51,358.28c.42.57.83,1.15,1.25,1.72-4.36,2.86-8.55,5.98-12.64,9.23-2.52,2-5,4.04-7.45,6.11,0,0-.02.01-.02.02-.08.07-.16.14-.24.2-3.7,3.26-7.12,6.82-10.48,10.43-1.85,1.74-3.36,3.83-4.21,6.21-.12.34-.23.68-.32,1.02-.13.53-.07.95.11,1.31.04.07.07.13.12.2.07.09.14.18.22.28.05.06.11.12.17.18.06.06.12.12.19.18.41.41.32,1.13-.09,1.5-1.1.87-2.12-.67-2.62-1.52-.13-.29-.2-.59-.24-.89-.05-.39-.04-.78,0-1.17h0c-1.33,1.44-2.66,2.89-3.96,4.35-.77.87-1.54,1.74-2.29,2.62-.49-.51-.98-1.02-1.47-1.52,1.15-1.33,2.32-2.64,3.5-3.95.44-.48.88-.96,1.31-1.44,1.77-1.94,3.53-3.88,5.3-5.81.72-1.49,1.48-2.96,2.28-4.41.92-1.66,1.98-3.41,3.15-5.23,2.66-4.12,5.9-8.54,9.43-12.7,3.94-4.64,8.23-8.96,12.48-12.24.59-.46,1.19-.89,1.78-1.3.4.56.8,1.12,1.21,1.69-1.01.7-1.98,1.44-2.93,2.22-3.52,2.91-6.63,6.32-9.69,9.69-.8.89-1.58,1.79-2.34,2.71-2.6,3.09-5.02,6.32-7.26,9.68-.84,1.26-1.65,2.53-2.43,3.82,1.32-1.43,2.68-2.81,4.08-4.15,1.84-1.77,3.75-3.46,5.71-5.11,3.24-2.73,6.6-5.33,9.98-7.89.85-.64,1.7-1.29,2.55-1.93,1.93-1.42,3.89-2.78,5.88-4.09Z"/>
    <path class="cls-2" d="M2399.45,465.64c.36,5.23.46,10.45.34,15.71-.33,5.19-.9,10.32-1.73,15.46-.98,4.97-2.2,9.87-3.64,14.72-1.63,4.8-3.45,9.48-5.5,14.12-2.15,4.4-4.47,8.69-7,12.88-2.75,4.22-5.69,8.29-8.82,12.23-3.37,3.94-6.9,7.7-10.63,11.3-3.74,3.36-7.61,6.52-11.64,9.53-4.42,3.04-8.94,5.87-13.64,8.45-4.53,2.29-9.14,4.34-13.87,6.19-5.09,1.77-10.23,3.27-15.47,4.55-5.36,1.07-10.72,1.89-16.16,2.44-4.91.3-9.8.39-14.71.26-5.07-.32-10.09-.88-15.1-1.68-5.12-1.02-10.16-2.26-15.17-3.74-4.79-1.63-9.47-3.47-14.11-5.52-4.2-2.06-8.28-4.29-12.32-6.66-.18-.11-.36-.22-.53-.34-3.97-2.48-8.09-5.53-12.09-8.72-3.86-3.3-7.54-6.74-11.08-10.38-3.61-3.98-6.98-8.12-10.16-12.43-3.05-4.49-5.85-9.1-8.45-13.86-2.27-4.59-4.32-9.25-6.16-14.02-1.7-4.99-3.14-10.03-4.36-15.15-.95-4.87-1.68-9.74-2.22-14.67-.37-5.41-.48-10.81-.32-16.24.33-4.91.9-9.76,1.67-14.62.98-4.96,2.19-9.84,3.61-14.7,1.62-4.83,3.44-9.56,5.5-14.22,2.09-4.32,4.36-8.52,6.82-12.64.42-.64.84-1.29,1.27-1.92-3.47-3.18-6.66-6.65-10.05-9.91-.58-.61-1.16-1.21-1.75-1.82.75-.88,1.52-1.75,2.29-2.62,1.31-1.46,2.63-2.91,3.96-4.35-.03.39-.04.78,0,1.16.04.3.11.61.24.89.5.85,1.53,2.39,2.62,1.52.41-.36.5-1.09.09-1.5-.07-.06-.13-.12-.19-.18s-.12-.12-.17-.18c-.08-.09-.15-.18-.22-.28-.04-.07-.08-.13-.12-.2-.19-.37-.25-.79-.11-1.31.09-.35.2-.69.32-1.02.86-2.38,2.37-4.47,4.21-6.21,3.36-3.61,6.77-7.17,10.48-10.43.08-.07.16-.14.24-.2,0,0,.02-.01.02-.02,2.45-2.06,4.93-4.11,7.45-6.11,4.09-3.25,8.29-6.37,12.64-9.23,1.89,2.62,3.8,5.25,5.7,7.87,1.39,1.76,2.55,3.61,3.68,5.47.85-.49,1.71-.97,2.57-1.45,4.49-2.26,9.06-4.29,13.74-6.11,5.09-1.78,10.23-3.29,15.48-4.56,5.14-1.04,10.31-1.84,15.54-2.37,5.33-.36,10.64-.41,15.98-.24,4.9.36,9.75.92,14.59,1.68,4.99.99,9.91,2.19,14.78,3.63,4.55,1.53,9.01,3.23,13.41,5.15,4.7,2.24,9.25,4.71,13.7,7.41,4.14,2.7,8.12,5.58,12,8.65,3.87,3.27,7.6,6.69,11.09,10.36,3.57,3.94,6.93,8.03,10.08,12.3,3.03,4.4,5.82,8.93,8.38,13.62,2.33,4.59,4.42,9.29,6.26,14.1,1.76,5.05,3.23,10.18,4.45,15.38.97,4.88,1.71,9.78,2.24,14.73Z"/>
    <path d="M2221.47,367.87c1.39,1.76,2.55,3.61,3.68,5.47-3.9,2.22-7.68,4.62-11.38,7.18-3.99,2.99-7.84,6.12-11.54,9.45-3.87,3.74-7.53,7.65-11.01,11.76-2.62,3.32-5.09,6.73-7.43,10.25-3.47-3.18-6.66-6.65-10.05-9.91-.58-.61-1.16-1.21-1.75-1.82-.49-.51-.98-1.02-1.47-1.52-2.45-2.54-4.92-5.06-7.45-7.53-.45-.44-.9-.88-1.35-1.31-2.93-3.12-5.94-6.16-9.23-8.9-.3-.25-.61-.51-.92-.75-.41-.32-.49-.75-.36-1.12.04-.11.09-.21.15-.31-.09-.18-.13-.38-.12-.59,3.35-4.47,6.98-8.75,10.71-12.89.11-.12.21-.24.32-.36,5.62-6.21,11.92-11.89,18.47-17.1.99-.79,1.99-1.56,3-2.32,4.63-3.5,9.44-6.73,14.4-9.69.14-.08.27-.16.4-.24.36.04.69.25.86.62.1.22.11.47.05.7,0,.03-.01.05-.02.08.61.8,1.11,1.68,1.63,2.54,1.03,1.51,2.26,2.94,3.27,4.45.86,1.32,1.73,2.61,2.66,3.86.27.36.54.72.82,1.08.64.9,1.28,1.79,1.93,2.69.4.56.8,1.12,1.21,1.69,1.19,1.65,2.38,3.3,3.56,4.95.42.57.83,1.15,1.25,1.72,1.89,2.62,3.8,5.25,5.7,7.87Z"/>
    <path d="M2207.96,352.95c.07.86.09,1.73.06,2.6-.09,3-.74,5.98-1.95,8.75-.76,1.75-1.75,3.41-2.95,4.93-.15.18-.3.37-.45.55-1.95,2.3-4.34,4.19-7,5.56,0,0-.02.01-.02.01-1.66.86-3.43,1.52-5.26,1.95-.55.13-1.1.24-1.65.33-.5.08-1.01.14-1.52.19-.39.04-.77.06-1.16.07-5.78.23-11.29-1.77-15.79-5.43-2.83-2.3-5.6-4.68-8.3-7.13-.54-.48-1.07-.97-1.61-1.47,2.36-2.71,4.9-5.29,7.53-7.75,3.06-2.86,6.28-5.55,9.61-8.09,1.72-1.31,3.47-2.58,5.26-3.8,1.72-1.17,3.47-2.3,5.25-3.37,3.05-1.84,6.21-3.55,9.49-4.94.16-.07.32-.14.48-.21.06.05.12.1.18.15.43.36.87.72,1.3,1.08,0,.03-.01.05-.02.08.61.8,1.11,1.68,1.63,2.54,1.03,1.51,2.26,2.94,3.27,4.45.86,1.32,1.73,2.61,2.66,3.86.51,1.65.83,3.35.96,5.07Z"/>
    <path d="M2196.15,370.63c0,.52-.02,1.04-.05,1.56-.06.83-.16,1.66-.31,2.49-.04.22-.09.45-.14.67,0,0,0,0,0,0-1.21,5.63-4.55,10.68-9.27,14-1.76,1.23-3.67,2.19-5.66,2.86-1.75.59-3.57.97-5.4,1.13-.71.07-1.43.1-2.15.1-3.48,0-6.96-.75-10.1-2.24-.45-.44-.9-.88-1.35-1.31-2.93-3.12-5.94-6.16-9.23-8.9-.43-.62-.85-1.25-1.28-1.87.04-.11.09-.21.15-.31-.09-.18-.13-.38-.12-.59,0-.09.03-.18.06-.27.66-1.98,1.64-3.86,2.73-5.64,1.53-2.51,3.3-4.86,5.09-7.01.4-.48.81-.96,1.23-1.43,2.36-2.71,4.9-5.29,7.53-7.75,3.06-2.86,6.28-5.55,9.61-8.09,1.72-1.31,3.47-2.58,5.26-3.8.34.44.67.88,1,1.32,1.19,1.57,2.36,3.17,3.5,4.78,1.63,2.29,3.16,4.65,4.72,7,1.63,2.44,2.82,5.09,3.5,7.86.23.91.39,1.83.51,2.76.11.89.16,1.79.16,2.69Z"/>
    <path d="M1889.78,639.19c2.94-.15,5.67-1.39,7.73-3.4.15-.02.3-.05.46-.07.17,1.43.35,2.85.59,4.26.28,1.63.54,3.62,1.93,4.71.68.53,1.5.8,2.32.8.62,0,1.25-.15,1.8-.46.16,1.56.31,3.12.46,4.67-5.26-3.27-10.33-6.81-15.3-10.51Z"/>
    <path class="cls-1" d="M2193.22,401.28s-.04.05-.06.07c.02-.02.04-.05.06-.07Z"/>
    <path class="cls-1" d="M2225.14,373.35c.04.07.08.13.12.2-.05.03-.1.07-.15.1-.13.09-.26.17-.39.27-.12.09-.24.2-.34.31,0,0,0,0,0,0-.35.29-.74.53-1.11.79-.25.18-.48.36-.73.54-.32.21-.63.43-.95.64-.27.19-.52.39-.79.58.01,0,.02-.01.03-.02-.3.22-.61.46-.89.7-.19.16-.37.33-.54.52-.08.09-.16.18-.24.26-.03.02-.05.05-.07.07-6.39,3.87-12.15,8.87-17.41,14.07-2.22,1.96-4.26,4.11-6.2,6.34-.06.06-.12.12-.17.19-.25.28-.51.55-.76.82-.23.26-.45.52-.67.79-.22.25-.44.49-.65.73-.03.03-.05.06-.07.09-.5.57-1.01,1.14-1.48,1.73-.48.59-.96,1.18-1.45,1.77-.28.35-.57.69-.82,1.05-.08.12-.16.24-.24.36-.17.23-.34.45-.5.68-.05.06-.11.11-.16.17-.23.24-.46.48-.66.74-.24.3-.48.6-.7.91-.37.48-.82.9-1.21,1.35-.38.44-.76.88-1.16,1.3-.18.18-.37.34-.53.52-.07.08-.14.17-.21.26-.08-.07-.16-.15-.24-.23-3.47-3.18-6.66-6.65-10.05-9.91-.58-.61-1.16-1.21-1.75-1.82-.49-.51-.98-1.02-1.47-1.52-2.45-2.54-4.92-5.06-7.45-7.53-.45-.44-.9-.88-1.35-1.31-2.93-3.12-5.94-6.16-9.23-8.9-.3-.25-.61-.51-.92-.75-.41-.32-.49-.75-.36-1.12.04-.11.09-.21.15-.31-.09-.18-.13-.38-.12-.59,0-.09.03-.18.06-.27.66-1.98,1.64-3.86,2.73-5.64,1.53-2.51,3.3-4.86,5.09-7.01.4-.48.81-.96,1.23-1.43,2.36-2.71,4.9-5.29,7.53-7.75,3.06-2.86,6.28-5.55,9.61-8.09,1.72-1.31,3.47-2.58,5.26-3.8,1.72-1.17,3.47-2.3,5.25-3.37,3.05-1.84,6.21-3.55,9.49-4.94.16-.07.32-.14.48-.21,0,0,.02,0,.03-.01h0s0,0,0,0c.02,0,.04-.02.06-.02h.01c.16-.05.32-.07.48-.05.36.04.69.25.86.62.1.22.11.47.05.7,0,.03-.01.05-.02.08.61.8,1.11,1.68,1.63,2.54,1.03,1.51,2.26,2.94,3.27,4.45.86,1.32,1.73,2.61,2.66,3.86.27.36.54.72.82,1.08.64.9,1.28,1.79,1.93,2.69.4.56.8,1.12,1.21,1.69,1.19,1.65,2.38,3.3,3.56,4.95.42.57.83,1.15,1.25,1.72,1.89,2.62,3.8,5.25,5.7,7.87,1.39,1.76,2.55,3.61,3.68,5.47Z"/>
    <path class="cls-1" d="M2150.09,377.51c.27.39.54.78.81,1.17-.27.36-.53.71-.79,1.07-.23.31-.45.62-.68.94-.96,1.34-1.89,2.71-2.8,4.09-5.07,7.77-9.54,15.7-13.38,24.14-3.6,7.91-6.45,16.1-8.77,24.48-2.24,8.07-3.77,16.39-4.7,24.7-.91,8.22-1.3,16.64-.82,24.91.5,8.7,1.48,17.27,3.2,25.81,1.86,9.21,4.54,18.27,8,27,1.2,3.02,2.48,6,3.85,8.94.22.47.44.94.66,1.4.23.5.47.99.71,1.48.42.86.85,1.72,1.29,2.57.08.16.16.32.24.47.21.41.42.82.64,1.23.24.46.49.93.74,1.39.02.04.05.09.07.13.23.44.47.87.71,1.31.25.47.52.94.78,1.41.26.47.53.93.79,1.4.02.04.05.08.07.12.25.42.49.84.74,1.26.34.58.69,1.16,1.04,1.73-2.56,3.21-5.28,6.31-8.08,9.3-27.92,29.01-62.52,51.68-101.03,64.12-15.78,4.91-32.15,7.3-48.67,8.23-2.93,0-5.85-.06-8.77-.17-4.04-.14-8.07-.38-12.1-.73-.09,0-.18-.02-.26-.02-.03,0-.07,0-.1,0-.05,0-.08,0-.11-.01-.03,0-.06,0-.09,0h0c-5.26-.46-10.5-1.11-15.71-2-2.45-.42-4.89-.9-6.88-1.34-2.39-.52-4.76-1.1-7.11-1.75,0,.14,0,.27,0,.4v-.4s-.02,0-.03,0c-.08-3.17-.16-6.34-.24-9.5-.02-.63-.03-1.25-.05-1.88.11-3.85.23-7.7.36-11.55,0-.05,0-.09,0-.14,0-6.12-.05-12.25-.12-18.38-.08-7.04-.16-14.09-.33-21.12-.5-20.45-1.08-40.9-1.88-61.34v-.3c-.3-7.35-.62-14.7-.93-22.05-.88-20.59-1.9-41.19-3.3-61.75.04.48.07.97.1,1.46-.5-7.38-.98-14.77-1.52-22.14.57-11.95,1.07-23.91,1.59-35.86v-.27s.01-.03.01-.04,0-.03,0-.04c.01-.21.02-.41.03-.62h0c0-.12,0-.23.02-.34,0-.06,0-.12,0-.18v-.35c.13-2.66.25-5.31.36-7.96.45-10.63.85-21.27,1.21-31.9-.03.91-.06,1.82-.09,2.73.48-.31.96-.61,1.44-.91,6.16-3.67,12.5-6.99,19.01-10,6.37-2.73,12.84-5.16,19.46-7.23,7.16-2.04,14.4-3.7,21.74-4.96,7.25-1.05,14.54-1.7,21.86-1.96,7.42-.07,14.82.27,22.21,1.02,7.06.89,14.07,2.1,20.98,3.78,7.09,1.86,14.05,4.09,20.89,6.72,6.61,2.72,13.05,5.79,19.34,9.19,6.23,3.58,12.24,7.46,18.06,11.68,5.51,4.19,10.81,8.64,15.84,13.39,4.91,4.83,9.59,9.9,13.96,15.23.43.55.86,1.09,1.28,1.64l.3.4,1.04,1.38c.77,1.03,1.53,2.07,2.27,3.11.47.65.93,1.3,1.39,1.96.07.1.15.21.22.31Z"/>
    <path d="M2440.47,764.61c.75-7.39,1.09-14.81,1.02-22.25-.25-7.39-.92-14.73-1.99-22.05-1.21-7.07-2.76-14.07-4.73-20.98-2.15-6.93-4.67-13.72-7.55-20.38-2.95-6.41-6.23-12.62-9.84-18.67-3.71-5.89-7.69-11.6-11.99-17.07-4.43-5.4-9.14-10.56-14.12-15.46-3.45-3.26-7.01-6.39-10.69-9.39-2.53-2.06-4.47-4.61-5.81-7.41-2.15,1.48-4.34,2.9-6.55,4.25-7.12,4.34-14.55,8.32-22.27,11.47-7.88,3.21-15.93,6.06-24.22,8.02-9.3,2.2-18.65,3.8-28.2,4.44-3.82.25-7.66.39-11.5.39-13.05,0-26.14-1.5-38.77-4.73-8.34-2.13-16.53-4.78-24.45-8.14-8.24-3.49-16.01-7.67-23.6-12.35-2.63-1.66-5.23-3.4-7.77-5.21-4.31,2.92-8.54,5.92-12.64,9.14-5.33,4.37-10.4,9.05-15.23,13.96-4.75,5.03-9.2,10.33-13.39,15.84-4.21,5.81-8.1,11.83-11.68,18.06-3.4,6.29-6.47,12.73-9.19,19.34-2.63,6.84-4.86,13.8-6.72,20.89-1.69,6.91-2.89,13.93-3.79,20.98-.74,7.38-1.09,14.78-1.02,22.2.26,7.33.91,14.61,1.96,21.86,1.26,7.34,2.92,14.58,4.96,21.74,2.07,6.62,4.49,13.09,7.23,19.46,3.01,6.51,6.33,12.84,10,19,3.64,5.79,7.57,11.38,11.78,16.77,4.45,5.41,9.16,10.58,14.14,15.51,5.01,4.71,10.24,9.16,15.71,13.35,5.77,4.2,11.73,8.07,17.9,11.64,6.31,3.43,12.77,6.52,19.4,9.27,6.89,2.65,13.9,4.91,21.04,6.8,7.22,1.7,14.5,2.98,21.85,3.9,7.27.69,14.52,1,21.82.93,7.12-.28,14.18-.9,21.24-1.89,7.18-1.23,14.27-2.8,21.29-4.78,7.05-2.18,13.94-4.75,20.72-7.68,6.36-2.95,12.54-6.23,18.57-9.82,5.94-3.76,11.64-7.8,17.17-12.13,5.34-4.44,10.44-9.11,15.31-14.05,4.68-5,9.1-10.2,13.25-15.64,4.2-5.77,8.05-11.76,11.61-17.95,3.34-6.16,6.38-12.45,9.05-18.93,2.65-6.86,4.95-13.85,6.82-20.96,1.69-7.03,3-14.14,3.89-21.31ZM2465.77,228.43c.74-7.39,1.09-14.79,1.02-22.21-.26-7.32-.91-14.61-1.95-21.86-1.26-7.34-2.92-14.58-4.96-21.74-2.07-6.62-4.49-13.09-7.23-19.46-3.01-6.51-6.33-12.84-10-19.01-3.65-5.79-7.57-11.38-11.79-16.77-4.45-5.41-9.16-10.58-14.14-15.51-5.02-4.71-10.25-9.16-15.71-13.35-5.77-4.2-11.73-8.07-17.91-11.64-6.31-3.43-12.77-6.52-19.4-9.27-6.89-2.65-13.9-4.91-21.04-6.8-7.22-1.7-14.49-2.98-21.85-3.9-7.27-.69-14.52-1-21.82-.93-7.12.27-14.18.9-21.23,1.89-7.18,1.22-14.27,2.8-21.29,4.78-7.05,2.18-13.94,4.74-20.72,7.67-6.36,2.95-12.54,6.23-18.57,9.82-5.94,3.76-11.64,7.81-17.17,12.13-5.34,4.44-10.44,9.11-15.31,14.05-4.68,5-9.1,10.2-13.25,15.64-4.2,5.77-8.05,11.76-11.61,17.95-3.34,6.16-6.38,12.46-9.05,18.93-2.66,6.86-4.95,13.85-6.82,20.96-1.69,7.03-3,14.13-3.89,21.3-.75,7.39-1.09,14.81-1.02,22.25.25,7.39.92,14.73,1.99,22.05,1.21,7.07,2.77,14.07,4.73,20.98,2.15,6.93,4.67,13.72,7.55,20.38,2.95,6.4,6.23,12.62,9.84,18.67,3.71,5.9,7.69,11.6,11.99,17.07,4.43,5.4,9.14,10.56,14.12,15.46,2.82,2.66,5.71,5.24,8.69,7.73-.16.07-.32.14-.48.21-3.28,1.39-6.43,3.11-9.49,4.94-1.78,1.07-3.53,2.2-5.25,3.37-1.79,1.22-3.54,2.48-5.26,3.8-3.33,2.54-6.55,5.23-9.61,8.09-2.63,2.46-5.17,5.03-7.53,7.75-.42.47-.82.95-1.23,1.43-1.79,2.14-3.56,4.5-5.09,7.01-1.09,1.78-2.07,3.66-2.73,5.64-.03.09-.05.18-.06.27-.02.21.02.41.12.59-.07.09-.12.2-.15.31-.12.37-.05.8.36,1.12.31.25.62.5.92.75,3.29,2.74,6.3,5.78,9.23,8.9.45.43.9.87,1.35,1.31,2.52,2.47,4.99,4.99,7.45,7.53.49.51.98,1.02,1.47,1.52.59.61,1.17,1.21,1.75,1.82,3.4,3.26,6.59,6.73,10.05,9.91-.43.64-.85,1.28-1.27,1.92-2.46,4.12-4.73,8.32-6.82,12.64-2.06,4.66-3.88,9.39-5.5,14.22-1.42,4.86-2.63,9.73-3.61,14.7-.77,4.86-1.34,9.71-1.67,14.62-.17,5.43-.05,10.82.32,16.24.54,4.93,1.27,9.8,2.22,14.67,1.22,5.12,2.66,10.16,4.36,15.15,1.84,4.77,3.89,9.43,6.16,14.02,2.61,4.76,5.4,9.37,8.45,13.86,3.18,4.32,6.55,8.45,10.16,12.43,3.54,3.64,7.22,7.08,11.08,10.38,4,3.19,8.12,6.23,12.09,8.72.18.11.36.22.53.34,4.04,2.37,8.12,4.59,12.32,6.66,4.63,2.04,9.31,3.88,14.11,5.52,5.01,1.48,10.04,2.72,15.17,3.74,5.01.79,10.03,1.36,15.1,1.68,4.91.13,9.8.04,14.71-.26,5.43-.54,10.8-1.36,16.16-2.44,5.24-1.28,10.38-2.78,15.47-4.55,4.72-1.85,9.34-3.9,13.87-6.19,4.7-2.58,9.22-5.41,13.64-8.45,4.03-3,7.9-6.17,11.64-9.53,3.73-3.6,7.26-7.36,10.63-11.3,3.13-3.94,6.07-8.01,8.82-12.23,2.53-4.19,4.85-8.48,7-12.88,2.04-4.63,3.87-9.32,5.5-14.12,1.44-4.86,2.66-9.75,3.64-14.72.82-5.14,1.39-10.27,1.73-15.46.12-5.25.02-10.47-.34-15.71-.53-4.95-1.27-9.85-2.24-14.73-1.23-5.2-2.69-10.33-4.45-15.38-1.84-4.81-3.93-9.51-6.26-14.1-2.56-4.69-5.34-9.23-8.38-13.62-3.15-4.27-6.52-8.36-10.08-12.3-3.5-3.67-7.23-7.09-11.09-10.36-3.88-3.07-7.86-5.95-12-8.65-4.45-2.7-9-5.17-13.7-7.41-4.4-1.92-8.86-3.62-13.41-5.15-4.88-1.44-9.79-2.64-14.78-3.63-4.85-.76-9.7-1.32-14.59-1.68-5.34-.17-10.65-.12-15.98.24-5.23.53-10.39,1.33-15.54,2.37-5.25,1.27-10.39,2.78-15.48,4.56-4.68,1.83-9.25,3.86-13.74,6.11-.86.47-1.72.95-2.57,1.45-1.13-1.86-2.28-3.71-3.68-5.47-1.91-2.62-3.81-5.25-5.7-7.87-.42-.57-.83-1.15-1.25-1.72-1.19-1.65-2.38-3.3-3.56-4.95-.4-.56-.81-1.12-1.21-1.69-.65-.89-1.29-1.79-1.93-2.69-.28-.36-.55-.72-.82-1.08-.93-1.26-1.8-2.54-2.66-3.86-1.01-1.51-2.23-2.94-3.27-4.45-.52-.86-1.02-1.74-1.63-2.54.01-.03.02-.05.02-.08.07-.23.05-.48-.05-.7-.16-.37-.49-.58-.86-.62,9.03-5.35,18.56-9.83,28.46-13.43,16.14-5.86,33.04-8.95,50.18-9.62,8.53-.33,17.12.21,25.59,1.21,8.36.98,16.66,2.8,24.75,5.1,16.92,4.82,32.76,12.51,47.34,22.31,4.42,2.97,8.63,6.2,12.67,9.64.95-.95,2.01-1.82,3.16-2.59,5.14-3.43,10.19-6.94,15.05-10.76,1.99-1.63,3.94-3.3,5.85-5.01.01-.01.02-.02.04-.03,2.54-2.53,5.14-4.99,7.8-7.37.52-.51,1.03-1.03,1.54-1.55,4.75-5.03,9.2-10.34,13.39-15.84,4.21-5.82,8.1-11.83,11.68-18.06,3.4-6.29,6.47-12.73,9.19-19.34,2.63-6.84,4.86-13.8,6.72-20.89,1.69-6.91,2.89-13.92,3.79-20.98ZM2722.8,498.92c.69-7.27,1-14.52.93-21.82-.28-7.12-.9-14.18-1.89-21.23-1.23-7.18-2.8-14.27-4.78-21.29-2.18-7.05-4.75-13.95-7.68-20.72-2.95-6.37-6.23-12.55-9.82-18.57-3.76-5.94-7.8-11.64-12.13-17.17-4.44-5.34-9.11-10.44-14.05-15.31-5-4.68-10.2-9.1-15.64-13.25-5.77-4.2-11.76-8.04-17.95-11.61-6.16-3.34-12.45-6.38-18.93-9.05-6.86-2.66-13.85-4.95-20.96-6.82-7.03-1.69-14.14-3-21.31-3.89-7.39-.75-14.81-1.09-22.25-1.01-7.39.25-14.73.92-22.05,1.98-7.07,1.22-14.07,2.77-20.98,4.73-6.93,2.15-13.72,4.66-20.38,7.55-6.41,2.95-12.62,6.23-18.67,9.85-5.89,3.7-11.6,7.69-17.07,11.99-2.39,1.96-4.73,3.97-7.02,6.04-2.12,2.08-4.27,4.11-6.47,6.1-.66.65-1.32,1.31-1.97,1.98-3.26,3.45-6.39,7.01-9.39,10.7-3.49,4.29-8.38,6.87-13.56,7.73,5.54,8.36,10.33,17.25,14.16,26.45,6.75,16.24,10.89,33.26,12.35,50.79,1.41,16.96-.04,33.96-3.81,50.54-.83,3.64-1.89,7.24-3,10.81-1.36,4.39-2.83,8.75-4.59,13-3.22,7.75-6.82,15.42-11.25,22.55-1.21,1.95-2.42,3.9-3.67,5.83.91.92,1.73,1.94,2.47,3.04,3.43,5.14,6.94,10.19,10.76,15.04,4.37,5.34,9.05,10.4,13.96,15.23,5.03,4.76,10.33,9.2,15.84,13.39,5.81,4.21,11.83,8.1,18.06,11.68,6.29,3.39,12.73,6.46,19.34,9.19,6.84,2.63,13.8,4.86,20.89,6.72,6.91,1.68,13.93,2.89,20.98,3.78,7.38.75,14.78,1.09,22.2,1.02,7.33-.26,14.61-.91,21.86-1.96,7.34-1.26,14.58-2.92,21.74-4.96,6.62-2.07,13.09-4.5,19.46-7.23,6.51-3.01,12.84-6.33,19-10,5.79-3.64,11.38-7.57,16.77-11.79,5.41-4.45,10.58-9.16,15.51-14.14,4.72-5.01,9.16-10.25,13.35-15.71,4.2-5.77,8.07-11.73,11.64-17.91,3.43-6.31,6.52-12.77,9.27-19.4,2.65-6.89,4.91-13.9,6.8-21.03,1.7-7.23,2.98-14.5,3.9-21.86ZM2769.46,470.75c.87,17.36-.39,34.93-3.91,51.96-3.55,17.23-9.1,34.14-16.86,49.95-7.75,15.76-17.3,30.7-28.72,44.07-11.36,13.3-24.28,25.26-38.55,35.39-14.32,10.15-29.88,18.44-46.23,24.8-16.36,6.36-33.65,10.52-51.07,12.56-17.46,2.05-35.05,1.71-52.48-.52-7.75-1-15.38-2.57-22.95-4.46-7.86-2.01-15.63-4.3-23.19-7.27-3.81-1.49-7.59-3.05-11.32-4.71,3.79,10.09,6.83,20.46,8.97,31.04,3.44,17.03,4.82,34.34,4.12,51.7-.68,16.79-3.58,33.43-8.23,49.56-4.79,16.66-11.9,32.56-20.61,47.54-4.39,7.55-9.36,14.68-14.62,21.64-5.33,7.05-11.28,13.53-17.43,19.86-12.28,12.63-26.48,23.22-41.49,32.36-7.27,4.43-14.88,8.23-22.66,11.67-7.16,3.16-14.48,6.01-21.98,8.26-8.45,2.54-16.92,4.77-25.61,6.28-8.86,1.54-17.74,2.59-26.73,3.04-17.36.87-34.93-.39-51.96-3.91-17.22-3.55-34.14-9.1-49.94-16.86-15.76-7.75-30.7-17.3-44.07-28.72-13.3-11.36-25.26-24.28-35.39-38.55-10.15-14.32-18.44-29.88-24.8-46.23-6.36-16.36-10.52-33.65-12.55-51.07-2.05-17.46-1.71-35.05.52-52.48,1-7.76,2.57-15.38,4.45-22.96,1.8-7.05,3.84-14.04,6.38-20.86-8.11,5.12-18.74,10.33-22.25,12.14-12.21,5.96-24.87,11.08-37.91,14.89-20.7,5.41-42.62,5.77-63.79,3.27-16.97-2.9-35.05-7.12-48.07-19.07-3.14-3.26,1.69-8.12,4.99-4.91,16.73,14.5,43.75,18.17,65.14,18.45,21.54.5,42.66-3.74,62.36-12.47,7.15-3.11,14.32-6.33,21.27-9.93-1.34.3-2.67.59-4.02.86-14.14,2.86-28.48,4.29-42.88,4.29-2.94,0-5.88-.06-8.83-.18-16.79-.68-33.43-3.58-49.56-8.22-11.95-3.44-23.52-8.07-34.62-13.62.12-3.02-.12-6.06-.41-9.07-.21-2.29-.45-4.59-.68-6.89-2.08.53-4.38-1.16-4.33-3.4.05-2.8.2-5.59.34-8.39.3-5.94.7-11.9,1.73-17.76.49-2.77,4.18-4.27,6.17-2.08.35.37.6.78.77,1.22l-.05-1.93c-.05-1.91,1.66-3.49,3.52-3.48,1.95.01,3.43,1.62,3.48,3.52.12,4.61.23,9.21.35,13.82.02.63.03,1.25.05,1.88.08,3.16.16,6.33.24,9.5l.02.81c0-.27,0-.53,0-.8,2.35.65,4.72,1.23,7.11,1.75,1.99.44,4.43.93,6.88,1.34,5.21.89,10.45,1.54,15.71,2h0s.06,0,.09,0c.02,0,.06,0,.11.01.03,0,.07,0,.1,0,.09,0,.18.02.26.02,4.03.35,8.06.59,12.1.73,2.92.11,5.85.16,8.77.17,16.52-.93,32.89-3.33,48.67-8.23,38.5-12.44,73.11-35.12,101.03-64.12,2.8-2.98,5.52-6.08,8.08-9.3-.35-.57-.7-1.15-1.04-1.73-.25-.42-.49-.84-.74-1.26-.02-.04-.05-.09-.07-.12-.27-.46-.53-.93-.79-1.4-.27-.47-.52-.93-.78-1.41-.24-.43-.48-.87-.71-1.31-.02-.05-.05-.09-.07-.13-.25-.46-.5-.93-.74-1.39-.21-.41-.43-.82-.64-1.23-.08-.16-.16-.31-.24-.47-.44-.85-.86-1.71-1.29-2.57-.24-.49-.48-.98-.71-1.48-.22-.46-.45-.93-.66-1.4-1.37-2.94-2.65-5.92-3.85-8.94-3.46-8.74-6.14-17.79-8-27-1.71-8.54-2.7-17.11-3.2-25.81-.47-8.27-.09-16.68.82-24.91.93-8.32,2.46-16.63,4.7-24.7,2.32-8.38,5.18-16.57,8.77-24.48,3.84-8.44,8.31-16.37,13.38-24.14.9-1.38,1.84-2.75,2.8-4.09.22-.31.45-.62.68-.94.26-.36.52-.71.79-1.07-.27-.39-.54-.78-.81-1.17-.07-.1-.14-.21-.22-.31-.45-.66-.92-1.31-1.39-1.96-.75-1.05-1.5-2.08-2.27-3.11l-1.04-1.38-.3-.4c-.42-.55-.85-1.1-1.28-1.64-4.37-5.34-9.05-10.4-13.96-15.23-5.03-4.76-10.34-9.2-15.84-13.39-5.82-4.21-11.83-8.1-18.06-11.68-6.29-3.39-12.73-6.46-19.34-9.19-6.84-2.63-13.8-4.86-20.89-6.72-6.91-1.68-13.93-2.89-20.98-3.78-7.39-.75-14.79-1.09-22.21-1.02-7.32.26-14.61.91-21.86,1.96-7.34,1.26-14.58,2.92-21.74,4.96-6.62,2.07-13.09,4.5-19.46,7.23-6.51,3.01-12.84,6.33-19.01,10-.48.3-.96.61-1.44.91.03-.91.06-1.82.09-2.73,0-.16.01-.32.02-.48.1-2.83.2-5.67.29-8.5,0-.04,0-.09,0-.13.13-3.91.25-7.82.37-11.73,0-.09,0-.19,0-.29l.12-3.79c.04-1.26.08-2.53.12-3.79,0-.19.01-.38.02-.56,0-.04,0-.08,0-.11v-.05c0-.07,0-.13,0-.2,0-.03,0-.05,0-.08v-.04c0-.05,0-.11,0-.16,0-.16.01-.31.02-.47.02-.52.04-1.04.05-1.56.21-6.06.42-12.12.58-18.19,3.34-1.5,6.72-2.91,10.13-4.23,16.36-6.36,33.65-10.52,51.07-12.56,17.46-2.05,35.05-1.71,52.48.52,7.76,1,15.38,2.57,22.96,4.46,7.86,2.01,15.63,4.3,23.18,7.27,5.29,2.07,10.49,4.26,15.61,6.67-3.58-9.71-6.47-19.68-8.52-29.85-3.44-17.04-4.82-34.34-4.12-51.71.68-16.79,3.58-33.43,8.23-49.56,4.79-16.66,11.9-32.56,20.61-47.54,4.39-7.55,9.36-14.68,14.62-21.64,5.33-7.05,11.28-13.53,17.43-19.86,12.28-12.63,26.48-23.22,41.49-32.36,7.27-4.43,14.88-8.24,22.67-11.67,7.16-3.16,14.47-6,21.97-8.26,8.45-2.54,16.92-4.77,25.61-6.28,8.86-1.54,17.74-2.59,26.73-3.04,17.36-.87,34.93.39,51.96,3.91,17.23,3.55,34.14,9.1,49.94,16.86,15.76,7.75,30.7,17.3,44.07,28.72,13.3,11.36,25.26,24.28,35.39,38.55,10.16,14.31,18.44,29.88,24.8,46.23,6.36,16.36,10.52,33.65,12.56,51.07,2.04,17.46,1.71,35.05-.53,52.48-1,7.75-2.57,15.38-4.45,22.95-1.61,6.29-3.4,12.53-5.57,18.64,5.51-1.63,11.09-3.03,16.74-4.17,17.03-3.44,34.34-4.82,51.7-4.11,16.79.68,33.43,3.58,49.56,8.22,16.66,4.8,32.56,11.9,47.54,20.61,7.55,4.39,14.68,9.36,21.64,14.63,7.05,5.33,13.53,11.27,19.86,17.43,12.63,12.28,23.22,26.48,32.36,41.48,4.43,7.27,8.23,14.89,11.67,22.67,3.16,7.16,6.01,14.47,8.26,21.98,2.54,8.45,4.77,16.92,6.28,25.61,1.54,8.86,2.59,17.74,3.04,26.73Z"/>
    <path d="M1981.01,649.1c-20.43-.86-40.12-12.47-50.57-30.07-6.02-9.3-6.73-20.44-7.85-31.15-.38-4.52,6.44-5.27,6.96-.7.25,2.64.59,5.26.9,7.89.48,9.58,3.91,18.66,9.82,26.13,15.99,19.25,37.55,23.33,61.38,20.3,10.14-1.23,19.98-3.3,29.91-5.48,3.93-.66,12.28-4.27,12.06,2.57-.36,2.06-2.53,3.52-4.51,2.95-3.82.78-7.61,1.69-11.42,2.49-15.43,3.27-30.93,6.12-46.69,5.07Z"/>
    <path d="M1953.79,645.65c-4.77-2.9-8.54-5.86-12.97-9.02-2.81-2.87-11.25-5.67-8.07-10.67,3.96-4.16,8.63,3.35,12.25,5.06,4.92,3.82,10.25,7.17,15.41,10.49,2.56,4.87-2.93,7.11-6.63,4.13Z"/>
    <path d="M1944.15,642.74c-3.38-1.69-6.17-4.44-9.1-6.81-2.63,2.27-6.4-.25-6.93-3.25-.64-2.36.31-5.02,1.47-7.09-.71-3.11,1.36-6.43,4.83-5.08,2.59,1.66,5.49,6.34,4.45,9.49,2.86,3.01,6.89,4.86,9.54,7.9,1.39,2.63-1.49,5.87-4.26,4.84Z"/>
    <path d="M1938.19,643.06c-4.06-3.17-7.33-7.31-10.98-10.94-3.16-3.24,1.94-8.15,5.05-4.85,1.56,1.65,3.13,3.3,4.71,4.93,1.9,2.52,5.19,4.26,6.51,7.05.81,2.97-2.73,5.47-5.29,3.81Z"/>
  </g>
</svg>